<?xml version="1.0" encoding="utf-8"?>
<!-- Generator: Adobe Illustrator 16.0.0, SVG Export Plug-In . SVG Version: 6.00 Build 0)  -->
<!DOCTYPE svg PUBLIC "-//W3C//DTD SVG 1.0//EN" "http://www.w3.org/TR/2001/REC-SVG-20010904/DTD/svg10.dtd">
<svg version="1.0" id="Layer_1" xmlns="http://www.w3.org/2000/svg" xmlns:xlink="http://www.w3.org/1999/xlink" x="0px" y="0px"
	 width="18px" height="18px" viewBox="0 0 50 50" xml:space="preserve">
<path fill="#7d2130" fill-rule="evenodd" clip-rule="evenodd" d="M-0.307,24.971C-0.305,11.377,10.858,0.22,24.449,0.225
	c13.645,0.005,24.77,11.172,24.755,24.849c-0.014,13.53-11.21,24.722-24.707,24.7C10.813,49.751-0.31,38.629-0.307,24.971z
	 M24.465,4.322C12.845,4.386,3.74,13.542,3.797,25.107c0.057,11.467,9.285,20.641,20.685,20.565
	c11.609-0.077,20.676-9.241,20.619-20.837C45.043,13.438,35.812,4.261,24.465,4.322z"/>
<path fill="#7d2130" fill-rule="evenodd" clip-rule="evenodd" d="M35.947,21.894c-0.782,0.857-1.536,1.742-2.352,2.567
	c-2.449,2.479-4.914,4.942-7.391,7.396c-1.417,1.402-2.008,1.399-3.41-0.005c-2.971-2.976-5.93-5.961-8.881-8.955
	c-0.309-0.313-0.535-0.708-0.964-1.287c0.73-0.136,1.255-0.318,1.781-0.32c6.516-0.02,13.031-0.019,19.547-0.001
	c0.507,0.001,1.013,0.164,1.519,0.252C35.847,21.659,35.896,21.776,35.947,21.894z"/>
</svg>
