<?xml version="1.0" encoding="utf-8"?>
<!-- Generator: Adobe Illustrator 16.0.0, SVG Export Plug-In . SVG Version: 6.00 Build 0)  -->
<!DOCTYPE svg PUBLIC "-//W3C//DTD SVG 1.0//EN" "http://www.w3.org/TR/2001/REC-SVG-20010904/DTD/svg10.dtd">
<svg version="1.0" id="Layer_1" xmlns="http://www.w3.org/2000/svg" xmlns:xlink="http://www.w3.org/1999/xlink" x="0px" y="0px"
	 width="18px" height="18px" viewBox="0 0 50 50" xml:space="preserve">
<path fill="#7d2130" fill-rule="evenodd" clip-rule="evenodd" d="M0.649,24.971C0.651,11.487,11.724,0.419,25.205,0.425
	C38.74,0.431,49.774,11.507,49.761,25.073c-0.014,13.421-11.119,24.522-24.507,24.5C11.679,49.551,0.647,38.519,0.649,24.971z
	 M25.221,4.489C13.695,4.552,4.663,13.634,4.72,25.106c0.057,11.374,9.21,20.475,20.518,20.399
	c11.515-0.076,20.509-9.166,20.452-20.668C45.633,13.531,36.477,4.428,25.221,4.489z"/>
<path fill="#7d2130" fill-rule="evenodd" clip-rule="evenodd" d="M13.719,30.24c0.78-0.856,1.534-1.74,2.348-2.564
	c2.447-2.476,4.909-4.937,7.382-7.387c1.415-1.401,2.006-1.398,3.407,0.004c2.967,2.972,5.923,5.955,8.871,8.946
	c0.309,0.313,0.535,0.707,0.963,1.285c-0.729,0.136-1.254,0.317-1.779,0.319c-6.509,0.02-13.017,0.019-19.525,0.001
	c-0.506-0.001-1.011-0.164-1.517-0.252C13.819,30.476,13.769,30.358,13.719,30.24z"/>
</svg>
