<?xml version="1.0" encoding="utf-8"?>
<!-- Generator: Adobe Illustrator 16.0.3, SVG Export Plug-In . SVG Version: 6.00 Build 0)  -->
<!DOCTYPE svg PUBLIC "-//W3C//DTD SVG 1.1//EN" "http://www.w3.org/Graphics/SVG/1.1/DTD/svg11.dtd">
<svg version="1.1" id="Layer_1" xmlns="http://www.w3.org/2000/svg" xmlns:xlink="http://www.w3.org/1999/xlink" x="0px" y="0px"
	 width="92px" height="62px" viewBox="0 0 92 62" enable-background="new 0 0 92 62" xml:space="preserve">
<g>
	<path fill-rule="evenodd" clip-rule="evenodd" fill="#E91A61" d="M20.556,32.827c0.015-2.833,0.579-6.113,2.2-9.144
		c2.381-4.449,6.004-7.265,10.995-8.242c2.302-0.45,4.53-0.133,6.727,0.605c1.583,0.532,3.13,1.165,4.739,1.622
		c0.821,0.233,1.601,0.236,2.417-0.015c1.549-0.477,3.061-1.062,4.597-1.577c1.724-0.578,3.482-1.023,5.308-1.015
		c1.662,0.008,3.296,0.294,4.895,0.771c2.328,0.694,4.365,1.869,6.063,3.614c0.424,0.435,0.81,0.905,1.183,1.387
		c0.189,0.245,0.185,0.376-0.101,0.552c-1.512,0.931-2.849,2.07-3.931,3.482c-1.438,1.878-2.235,4.005-2.433,6.365
		c-0.218,2.616,0.127,5.135,1.36,7.476c1.469,2.784,3.687,4.794,6.521,6.135c0.266,0.125,0.432,0.216,0.305,0.583
		c-1.67,4.857-4.356,9.093-7.843,12.833c-0.919,0.988-2.005,1.778-3.257,2.324c-1.881,0.821-3.77,0.667-5.679,0.108
		c-1.059-0.311-2.068-0.751-3.104-1.122c-3.071-1.098-6.111-0.955-9.132,0.192c-1.112,0.423-2.223,0.843-3.371,1.167
		c-2.446,0.692-4.624,0.181-6.597-1.374c-1.515-1.192-2.742-2.652-3.927-4.156c-3.375-4.287-5.647-9.104-6.968-14.381
		C20.897,38.517,20.559,35.977,20.556,32.827z"/>
	<path fill-rule="evenodd" clip-rule="evenodd" fill="#E91A61" d="M46.022,13.863c0.037-3.052,1.186-5.688,3.084-8.017
		c2.255-2.764,5.194-4.369,8.687-4.995c0.945-0.17,0.984-0.157,1.007,0.796c0.045,1.979-0.341,3.878-1.236,5.65
		c-1.533,3.035-3.74,5.426-6.817,6.939c-1.335,0.657-2.765,0.957-4.263,0.905c-0.321-0.01-0.471-0.121-0.463-0.443
		C46.027,14.421,46.022,14.142,46.022,13.863z"/>
</g>
</svg>
