<?xml version="1.0" encoding="utf-8"?>
<!-- Generator: Adobe Illustrator 16.0.3, SVG Export Plug-In . SVG Version: 6.00 Build 0)  -->
<!DOCTYPE svg PUBLIC "-//W3C//DTD SVG 1.1//EN" "http://www.w3.org/Graphics/SVG/1.1/DTD/svg11.dtd">
<svg version="1.1" id="Layer_1" xmlns="http://www.w3.org/2000/svg" xmlns:xlink="http://www.w3.org/1999/xlink" x="0px" y="0px"
	 width="92px" height="62px" viewBox="0 0 92 62" enable-background="new 0 0 92 62" xml:space="preserve">
<g>
	<path fill-rule="evenodd" clip-rule="evenodd" fill="#E91A61" d="M46.005,21.773c4.905,0,9.812,0,14.716,0.002
		c0.841,0,0.844,0.004,0.844,0.857c0.001,7.475,0.001,14.951,0,22.428c-0.001,1.805-0.95,2.748-2.768,2.756
		c-0.961,0.004-1.924,0.029-2.884-0.01c-0.58-0.023-0.735,0.202-0.73,0.751c0.023,2.258,0.014,4.513,0.009,6.771
		c-0.003,0.797-0.143,1.559-0.597,2.24c-0.808,1.205-2.228,1.753-3.658,1.403c-1.351-0.33-2.374-1.458-2.503-2.867
		c-0.182-1.975-0.04-3.961-0.075-5.94c-0.011-0.608-0.008-1.217-0.002-1.825c0.003-0.328-0.11-0.521-0.473-0.521
		c-1.256,0.006-2.513,0.006-3.768,0c-0.478-0.002-0.454,0.325-0.454,0.649c0,2.336,0.007,4.669-0.003,7.005
		c-0.007,1.041-0.311,1.979-1.105,2.695c-1.065,0.96-2.309,1.183-3.609,0.641c-1.308-0.542-2.034-1.584-2.047-3.025
		c-0.022-2.414-0.023-4.828,0.002-7.24c0.006-0.569-0.168-0.758-0.735-0.737c-0.999,0.039-2.001,0.016-3.001,0.01
		c-1.742-0.013-2.714-0.964-2.717-2.697c-0.005-7.535,0.005-15.07-0.014-22.605c-0.001-0.62,0.232-0.751,0.797-0.75
		C36.154,21.781,41.08,21.773,46.005,21.773z"/>
	<path fill-rule="evenodd" clip-rule="evenodd" fill="#E91A61" d="M46.006,20.417c-4.963,0-9.927,0-14.89,0
		c-0.797,0-0.822-0.006-0.691-0.772c0.813-4.728,3.242-8.396,7.28-10.975c0.516-0.33,0.53-0.566,0.26-1.053
		c-0.618-1.114-1.18-2.26-1.76-3.395c-0.089-0.175-0.182-0.352-0.227-0.54c-0.071-0.297,0.023-0.55,0.314-0.688
		c0.303-0.142,0.546-0.017,0.709,0.235c0.171,0.261,0.306,0.548,0.448,0.826c0.54,1.044,1.095,2.085,1.605,3.144
		c0.206,0.426,0.407,0.513,0.854,0.313c1.98-0.884,4.077-1.273,6.236-1.258c1.977,0.01,3.903,0.381,5.726,1.162
		c0.544,0.233,0.786,0.122,1.053-0.375c0.612-1.139,1.283-2.247,1.933-3.368c0.088-0.153,0.179-0.305,0.275-0.451
		c0.204-0.309,0.489-0.412,0.81-0.227c0.326,0.191,0.366,0.499,0.186,0.817c-0.54,0.956-1.091,1.906-1.639,2.859
		c-0.205,0.356-0.391,0.727-0.628,1.063c-0.261,0.369-0.161,0.55,0.21,0.768c2.041,1.209,3.711,2.82,5.032,4.787
		c1.31,1.949,2.149,4.087,2.496,6.415c0.104,0.698,0.099,0.713-0.645,0.713C55.973,20.417,50.99,20.417,46.006,20.417z
		 M51.897,13.523c-0.011,0.696,0.511,1.252,1.187,1.265c0.648,0.013,1.232-0.573,1.234-1.238c0.002-0.666-0.568-1.234-1.235-1.232
		C52.441,12.32,51.905,12.864,51.897,13.523z M37.768,13.566c0.007,0.671,0.526,1.207,1.181,1.219
		c0.648,0.015,1.24-0.583,1.235-1.246c-0.005-0.653-0.617-1.244-1.264-1.222C38.264,12.345,37.762,12.889,37.768,13.566z"/>
	<path fill-rule="evenodd" clip-rule="evenodd" fill="#E91A61" d="M22.412,31.798c0-2.394-0.005-4.787,0.001-7.181
		c0.005-2.025,1.416-3.488,3.347-3.479c1.968,0.006,3.418,1.471,3.422,3.496c0.011,4.767,0.011,9.535,0,14.302
		c-0.004,2.006-1.484,3.494-3.438,3.492c-1.899,0-3.327-1.498-3.331-3.508C22.408,36.546,22.412,34.171,22.412,31.798z"/>
	<path fill-rule="evenodd" clip-rule="evenodd" fill="#E91A61" d="M69.588,31.782c0,2.375,0.004,4.748-0.002,7.123
		c-0.004,2.021-1.406,3.506-3.316,3.524c-1.952,0.017-3.442-1.45-3.45-3.473c-0.02-4.808-0.015-9.613-0.002-14.421
		c0.006-1.712,1.284-3.179,2.873-3.364c1.854-0.216,3.414,0.818,3.82,2.556c0.066,0.282,0.072,0.581,0.073,0.874
		C69.59,26.995,69.588,29.388,69.588,31.782z"/>
</g>
</svg>
