<?xml version="1.0" encoding="utf-8"?>
<!-- Generator: Adobe Illustrator 16.0.3, SVG Export Plug-In . SVG Version: 6.00 Build 0)  -->
<!DOCTYPE svg PUBLIC "-//W3C//DTD SVG 1.1//EN" "http://www.w3.org/Graphics/SVG/1.1/DTD/svg11.dtd">
<svg version="1.1" id="Layer_1" xmlns="http://www.w3.org/2000/svg" xmlns:xlink="http://www.w3.org/1999/xlink" x="0px" y="0px"
	 width="92px" height="62px" viewBox="0 0 92 62" enable-background="new 0 0 92 62" xml:space="preserve">
<g>
	<path fill-rule="evenodd" clip-rule="evenodd" fill="#FEAE05" d="M76,27.877c0,2.063,0,4.127,0,6.189
		c-0.418,2.679-0.975,5.318-1.963,7.857c-5.112,13.146-18.59,20.853-32.785,18.726C25.639,58.312,14.258,43.475,16.22,27.713
		C17.721,15.658,24.35,7.447,35.435,2.85c2.39-0.99,4.923-1.429,7.456-1.85c2.102,0,4.205,0,6.307,0
		c0.226,0.046,0.452,0.104,0.681,0.141c11.868,1.926,20.071,8.474,24.483,19.793C75.233,23.167,75.609,25.524,76,27.877z
		 M63.9,41.775c0.75-0.002,1.125-0.383,1.352-0.938c0.436-1.063,0.863-2.126,1.284-3.194c0.548-1.387,0.383-1.768-1.008-2.359
		c-1.184-0.504-1.314-0.767-1.196-2.099c0.133-1.47,0.164-2.942-0.025-4.409c-0.207-1.604-0.092-1.852,1.337-2.516
		c1.06-0.493,1.271-1.005,0.822-2.117c-0.417-1.036-0.861-2.063-1.313-3.084c-0.519-1.173-1.022-1.363-2.221-0.881
		c-1.315,0.529-1.531,0.496-2.466-0.629c-0.924-1.109-1.917-2.139-3.045-3.038c-1.418-1.133-1.414-1.14-0.85-2.873
		c0.324-0.994,0.118-1.5-0.826-1.903c-1.049-0.445-2.108-0.867-3.171-1.277c-1.298-0.504-1.796-0.317-2.275,1.027
		c-0.35,0.981-0.964,1.343-1.934,1.221c-1.542-0.194-3.078-0.174-4.624-0.007c-2.082,0.223-2.024-0.119-2.578-1.496
		c-0.374-0.927-0.914-1.109-1.833-0.737c-1.084,0.438-2.154,0.907-3.229,1.369c-1.273,0.548-1.442,0.965-0.925,2.254
		c0.519,1.295,0.46,1.569-0.642,2.479c-1.088,0.897-2.092,1.88-2.979,2.98c-1.179,1.463-1.194,1.472-2.926,0.898
		c-1.011-0.334-1.508-0.113-1.931,0.899c-0.408,0.978-0.795,1.964-1.183,2.949c-0.584,1.485-0.431,1.917,1.061,2.473
		c0.858,0.319,1.202,0.851,1.122,1.734c-0.145,1.556-0.188,3.105-0.021,4.671c0.199,1.863,0.148,1.869-1.47,2.678
		c-0.896,0.447-1.108,0.934-0.738,1.852c0.45,1.118,0.923,2.228,1.409,3.331c0.502,1.138,0.99,1.32,2.154,0.848
		c1.367-0.554,1.574-0.523,2.537,0.635c0.942,1.131,1.964,2.173,3.121,3.084c1.33,1.049,1.348,1.149,0.764,2.727
		c-0.393,1.058-0.185,1.554,0.883,2.005c1.021,0.432,2.054,0.842,3.089,1.246c1.337,0.521,1.73,0.348,2.295-0.985
		c0.507-1.197,0.779-1.344,2.07-1.241c1.514,0.121,3.032,0.164,4.543-0.036c1.511-0.199,1.775-0.065,2.422,1.343
		c0.494,1.073,0.994,1.288,2.095,0.847c0.948-0.382,1.883-0.798,2.822-1.202c1.545-0.667,1.709-1.034,1.026-2.635
		c-0.314-0.732-0.23-1.329,0.359-1.818c1.494-1.242,2.836-2.625,4.06-4.137c0.434-0.536,0.99-0.677,1.646-0.366
		C63.159,41.533,63.582,41.658,63.9,41.775z"/>
	<path fill-rule="evenodd" clip-rule="evenodd" fill="none" d="M60.106,40.775c-0.318-0.117-0.741-0.242-1.134-0.429
		c-0.656-0.311-1.212-0.17-1.646,0.366c-1.224,1.512-2.566,2.895-4.06,4.137c-0.59,0.489-0.673,1.086-0.359,1.818
		c0.684,1.601,0.519,1.968-1.026,2.635c-0.939,0.404-1.875,0.82-2.822,1.202c-1.101,0.441-1.601,0.227-2.095-0.847
		c-0.647-1.408-0.912-1.542-2.422-1.343c-1.512,0.2-3.029,0.157-4.543,0.036c-1.291-0.103-1.563,0.044-2.07,1.241
		c-0.565,1.333-0.958,1.507-2.295,0.985c-1.035-0.404-2.068-0.814-3.089-1.246c-1.067-0.451-1.275-0.947-0.883-2.005
		c0.584-1.577,0.566-1.678-0.764-2.727c-1.156-0.911-2.179-1.953-3.121-3.084c-0.963-1.158-1.17-1.188-2.537-0.635
		c-1.164,0.473-1.652,0.29-2.154-0.848c-0.486-1.104-0.959-2.213-1.409-3.331c-0.37-0.918-0.158-1.404,0.738-1.852
		c1.619-0.809,1.669-0.814,1.47-2.678c-0.167-1.565-0.124-3.115,0.021-4.671c0.08-0.884-0.264-1.415-1.122-1.734
		c-1.492-0.556-1.645-0.987-1.061-2.473c0.388-0.985,0.774-1.972,1.183-2.949c0.423-1.013,0.92-1.233,1.931-0.899
		c1.732,0.573,1.747,0.564,2.926-0.898c0.887-1.101,1.89-2.083,2.979-2.98c1.102-0.91,1.161-1.185,0.642-2.479
		c-0.518-1.289-0.348-1.706,0.925-2.254c1.074-0.462,2.145-0.931,3.229-1.369c0.919-0.372,1.459-0.189,1.833,0.737
		c0.554,1.377,0.497,1.719,2.578,1.496c1.546-0.167,3.083-0.188,4.624,0.007c0.97,0.122,1.584-0.239,1.934-1.221
		c0.479-1.345,0.977-1.531,2.275-1.027c1.063,0.41,2.122,0.832,3.171,1.277c0.944,0.403,1.15,0.909,0.826,1.903
		c-0.564,1.733-0.568,1.74,0.85,2.873c1.129,0.899,2.122,1.929,3.045,3.038c0.935,1.125,1.151,1.158,2.466,0.629
		c1.198-0.482,1.702-0.292,2.221,0.881c0.452,1.021,0.896,2.048,1.313,3.084c0.448,1.112,0.238,1.624-0.822,2.117
		c-1.429,0.664-1.544,0.911-1.337,2.516c0.188,1.467,0.158,2.939,0.025,4.409c-0.119,1.332,0.012,1.595,1.196,2.099
		c1.391,0.592,1.557,0.973,1.008,2.359c-0.421,1.068-0.849,2.132-1.284,3.194C61.231,40.393,60.856,40.773,60.106,40.775z
		 M45.376,29.946c0.057,0.01,0.114,0.02,0.171,0.03c0,1.521-0.006,3.04,0.005,4.561c0.001,0.37-0.055,0.777,0.43,0.955
		c1.003,0.369,1.678-0.058,1.685-1.114c0.013-2.032,0.006-4.065,0.006-6.097c0-2.258,0-2.241-2.233-2.14
		c-0.593,0.025-0.896,0.275-1.065,0.828c-0.43,1.407-0.882,2.806-1.349,4.201c-0.094,0.282-0.066,0.646-0.458,0.856
		c-0.57-1.664-1.16-3.29-1.677-4.94c-0.226-0.722-0.63-1.008-1.346-0.942c-0.259,0.023-0.523,0-0.787,0.004
		c-1.105,0.015-1.208,0.102-1.214,1.208c-0.011,2.384,0.01,4.771-0.008,7.155c-0.005,0.746,0.288,1.049,1.042,1.052
		c0.776,0.002,1.111-0.266,1.088-1.081c-0.04-1.496-0.011-2.994-0.011-4.49c0.695,1.488,1.228,2.983,1.736,4.485
		c0.209,0.624,0.443,1.101,1.25,1.088c0.771-0.013,0.973-0.48,1.17-1.068C44.32,32.977,44.852,31.463,45.376,29.946z M52.036,35.764
		c0.287-0.029,0.58-0.042,0.866-0.09c1.851-0.316,2.901-1.311,2.993-2.823c0.085-1.406-0.81-2.357-2.682-2.874
		c-0.73-0.201-1.457-0.416-2.177-0.65c-0.294-0.096-0.489-0.317-0.504-0.654c-0.014-0.325,0.121-0.563,0.396-0.731
		c0.708-0.432,1.958-0.147,2.414,0.553c0.321,0.494,1.625,0.839,1.983,0.446c0.478-0.521,0.043-1.038-0.194-1.521
		c-0.088-0.18-0.241-0.334-0.386-0.476c-1.358-1.325-4.291-1.317-5.646,0.011c-1.234,1.208-0.951,3.207,0.573,4.023
		c0.625,0.334,1.311,0.492,1.987,0.676c0.535,0.146,1.089,0.235,1.567,0.535c0.685,0.429,0.675,1.145-0.003,1.54
		c-0.988,0.576-2.506,0.142-3.021-0.861c-0.256-0.498-1.238-0.797-1.818-0.492c-0.657,0.346-0.291,0.901-0.111,1.308
		C48.992,35.32,50.457,35.653,52.036,35.764z M28.351,30.871c-0.002,3.586,3.042,5.813,6.225,4.539
		c1.259-0.505,2.011-1.468,2.31-2.792c0.059-0.259,0.128-0.528-0.147-0.721c-0.532-0.373-1.745-0.034-1.988,0.596
		c-0.333,0.864-0.931,1.345-1.843,1.371c-0.936,0.029-1.77-0.525-2.108-1.441c-0.404-1.087-0.417-2.206,0.061-3.27
		c0.676-1.505,2.714-1.839,3.581-0.532c0.482,0.729,1.03,0.807,1.754,0.792c0.634-0.011,0.758-0.293,0.58-0.84
		c-0.406-1.244-1.252-2.029-2.478-2.405C31.107,25.188,28.352,27.37,28.351,30.871z"/>
	<g>
		<path fill-rule="evenodd" clip-rule="evenodd" fill="#FEAE05" d="M49.25,30.094c-0.524,1.517-1.056,3.03-1.566,4.551
			c-0.197,0.588-0.399,1.056-1.17,1.068c-0.807,0.013-1.041-0.464-1.25-1.088c-0.508-1.502-1.041-2.997-1.736-4.485
			c0,1.496-0.029,2.994,0.011,4.49c0.023,0.815-0.312,1.083-1.088,1.081c-0.753-0.003-1.046-0.306-1.042-1.052
			c0.018-2.385-0.003-4.771,0.008-7.155c0.006-1.106,0.109-1.193,1.214-1.208c0.263-0.004,0.527,0.02,0.787-0.004
			c0.716-0.065,1.12,0.221,1.346,0.942c0.517,1.65,1.107,3.276,1.677,4.94c0.392-0.211,0.364-0.574,0.458-0.856
			c0.467-1.396,0.919-2.794,1.349-4.201c0.169-0.553,0.472-0.803,1.065-0.828c2.233-0.102,2.233-0.118,2.233,2.14
			c0,2.031,0.007,4.064-0.006,6.097c-0.007,1.057-0.682,1.483-1.685,1.114c-0.484-0.178-0.428-0.585-0.43-0.955
			c-0.011-1.521-0.005-3.039-0.005-4.561C49.364,30.113,49.307,30.104,49.25,30.094z"/>
		<path fill-rule="evenodd" clip-rule="evenodd" fill="#FEAE05" d="M55.911,35.911c-1.58-0.11-3.044-0.443-3.766-2.081
			c-0.18-0.406-0.546-0.962,0.111-1.308c0.581-0.305,1.563-0.006,1.818,0.492c0.515,1.003,2.033,1.438,3.021,0.861
			c0.679-0.396,0.688-1.111,0.003-1.54c-0.478-0.3-1.032-0.39-1.567-0.535c-0.676-0.184-1.362-0.342-1.987-0.676
			c-1.524-0.816-1.807-2.815-0.573-4.023c1.355-1.328,4.288-1.336,5.646-0.011c0.145,0.142,0.298,0.296,0.386,0.476
			c0.238,0.482,0.672,1,0.194,1.521c-0.359,0.393-1.663,0.048-1.983-0.446c-0.456-0.7-1.706-0.984-2.414-0.553
			c-0.275,0.168-0.41,0.406-0.396,0.731c0.015,0.337,0.21,0.559,0.504,0.654c0.72,0.234,1.447,0.449,2.177,0.65
			c1.872,0.517,2.767,1.468,2.682,2.874c-0.092,1.513-1.142,2.507-2.993,2.823C56.491,35.869,56.198,35.882,55.911,35.911z"/>
		<path fill-rule="evenodd" clip-rule="evenodd" fill="#FEAE05" d="M32.226,31.019c0.001-3.501,2.756-5.684,5.945-4.703
			c1.225,0.376,2.072,1.161,2.478,2.405c0.178,0.547,0.054,0.829-0.58,0.84c-0.724,0.015-1.271-0.063-1.754-0.792
			c-0.867-1.307-2.905-0.973-3.581,0.532c-0.478,1.063-0.464,2.183-0.061,3.27c0.339,0.916,1.173,1.471,2.108,1.441
			c0.912-0.026,1.51-0.507,1.843-1.371c0.243-0.63,1.456-0.969,1.988-0.596c0.276,0.192,0.206,0.462,0.147,0.721
			c-0.299,1.324-1.051,2.287-2.31,2.792C35.268,36.831,32.224,34.604,32.226,31.019z"/>
	</g>
</g>
</svg>
