<?xml version="1.0" encoding="utf-8"?>
<!-- Generator: Adobe Illustrator 16.0.3, SVG Export Plug-In . SVG Version: 6.00 Build 0)  -->
<!DOCTYPE svg PUBLIC "-//W3C//DTD SVG 1.1//EN" "http://www.w3.org/Graphics/SVG/1.1/DTD/svg11.dtd">
<svg version="1.1" id="Layer_1" xmlns="http://www.w3.org/2000/svg" xmlns:xlink="http://www.w3.org/1999/xlink" x="0px" y="0px"
	 width="92px" height="62px" viewBox="0 0 92 62" enable-background="new 0 0 92 62" xml:space="preserve">
<g>
	<g>
		<path fill-rule="evenodd" clip-rule="evenodd" fill="#FA7202" d="M14.397,12.714c0.268-0.01,0.538-0.026,0.805-0.026
			c13.141-0.001,26.28-0.007,39.418,0.017c0.608,0,0.991-0.213,1.382-0.626c1.286-1.373,2.497-2.82,3.871-4.111
			c2.402-2.26,4.86-4.453,7.774-6.058c0.678-0.372,1.393-0.672,2.171-0.774c1.129-0.148,1.816,0.484,1.752,1.609
			c-0.049,0.835-0.424,1.56-0.822,2.258c-1.103,1.937-2.495,3.664-3.94,5.352c-1.138,1.329-2.324,2.609-3.563,3.846
			c-0.172,0.173-0.289,0.359-0.289,0.619c0.005,2,0.002,4.003,0.003,6.006c0,0.081-0.01,0.17,0.114,0.242
			c0.51-0.359,0.865-0.897,1.319-1.334c0.458-0.444,0.9-0.904,1.332-1.375c0.233-0.253,0.428-0.267,0.675-0.029
			c1.659,1.598,3.322,3.192,4.99,4.78c0.256,0.245,0.304,0.458,0.041,0.721c-0.274,0.272-0.528,0.566-0.794,0.844
			c-2.437,2.53-4.871,5.063-7.314,7.585c-0.313,0.322-0.371,0.682-0.371,1.102c0.007,8.781,0.005,17.565,0.005,26.347
			c0,0.202-0.011,0.404,0,0.604c0.021,0.399-0.144,0.606-0.561,0.573c-0.084-0.007-0.17,0-0.253,0c-15.748,0-31.494,0-47.242,0
			c-0.168,0-0.335-0.007-0.504-0.01C14.397,44.82,14.397,28.767,14.397,12.714z M51.577,16.912
			c-0.568-0.177-1.057-0.063-1.538-0.063c-10.28-0.007-20.561-0.005-30.84-0.005c-0.738,0-0.741,0.003-0.741,0.716
			c-0.001,12.818-0.001,25.639,0,38.457c0,0.712,0.001,0.715,0.689,0.715c12.989,0,25.976,0,38.966,0
			c0.682,0,0.683-0.002,0.684-0.661c0-6.141,0-12.282-0.004-18.423c0-0.155,0.069-0.334-0.098-0.487
			c-0.092,0.078-0.183,0.147-0.264,0.231c-2.828,2.946-5.659,5.893-8.479,8.847c-0.238,0.252-0.404,0.354-0.697,0.072
			c-1.594-1.545-3.205-3.069-4.798-4.612c-0.572-0.556-0.561-0.574-0.02-1.139c2.397-2.5,4.797-4.999,7.197-7.494
			c2.145-2.229,4.296-4.448,6.431-6.686c0.379-0.399,0.776-0.765,0.755-1.453c-0.063-1.866-0.021-3.734-0.027-5.603
			c-0.001-0.169,0.077-0.364-0.166-0.604c-0.488,0.521-0.951,1.053-1.453,1.547c-1.557,1.535-3.131,3.052-4.688,4.585
			c-0.312,0.309-0.545,0.345-0.939,0.075c-1.351-0.921-2.479-2.055-3.427-3.38c-0.193-0.271-0.238-0.48,0.016-0.748
			c0.498-0.524,0.964-1.076,1.441-1.618C50.23,18.442,50.883,17.7,51.577,16.912z"/>
		<path fill-rule="evenodd" clip-rule="evenodd" fill="#FA7202" d="M77.603,17.053c-0.388,0.935-1.189,1.535-1.838,2.254
			c-0.813,0.896-1.684,1.74-2.497,2.635c-0.331,0.365-0.581,0.415-0.946,0.061c-1.646-1.609-3.306-3.204-4.965-4.8
			c-0.212-0.201-0.181-0.372,0.001-0.559c1.372-1.41,2.69-2.873,4.129-4.211c1.069-0.994,1.753-0.723,2.497,0.032
			c0.991,1.005,2.032,1.961,3.049,2.943c0.204,0.197,0.382,0.424,0.57,0.637C77.603,16.381,77.603,16.718,77.603,17.053z"/>
	</g>
	<path fill-rule="evenodd" clip-rule="evenodd" fill="#FA7202" d="M29.532,44.343c0.159-2.507,0.478-4.979,1.416-7.339
		c0.776-1.95,2.185-3.274,4.017-4.199c1.415-0.714,2.921-1.107,4.498-1.213c0.306-0.022,0.483-0.144,0.645-0.391
		c1.484-2.287,3.156-4.437,4.846-6.569c0.667-0.843,1.382-1.649,2.05-2.491c0.285-0.357,0.436-0.275,0.667,0.052
		c0.93,1.317,2.059,2.436,3.423,3.302c0.311,0.198,0.354,0.35,0.063,0.605c-1.23,1.071-2.439,2.164-3.668,3.233
		c-1.687,1.468-3.421,2.876-5.245,4.175c-0.271,0.194-0.366,0.461-0.419,0.769c-0.25,1.488-0.645,2.92-1.504,4.19
		c-1.054,1.558-2.508,2.549-4.3,3.054c-1.695,0.479-3.322,1.083-4.684,2.255c-0.526,0.453-0.988,0.955-1.42,1.496
		c-0.078,0.095-0.137,0.272-0.302,0.2c-0.122-0.054-0.08-0.208-0.082-0.32C29.528,44.882,29.532,44.611,29.532,44.343z"/>
	<path fill-rule="evenodd" clip-rule="evenodd" fill="#FA7202" d="M38.007,53.164c-0.369-0.07-0.428-0.278-0.298-0.561
		c0.217-0.474,0.44-0.943,0.672-1.41c1.384-2.803,2.769-5.604,4.159-8.403c0.281-0.569,0.3-0.563,0.76-0.121
		c1.553,1.487,3.11,2.971,4.662,4.457c0.588,0.563,0.572,0.611-0.164,0.993c-3.058,1.586-6.112,3.18-9.168,4.767
		C38.424,52.994,38.203,53.077,38.007,53.164z"/>
</g>
</svg>
