<?xml version="1.0" encoding="utf-8"?>
<!-- Generator: Adobe Illustrator 16.0.3, SVG Export Plug-In . SVG Version: 6.00 Build 0)  -->
<!DOCTYPE svg PUBLIC "-//W3C//DTD SVG 1.1//EN" "http://www.w3.org/Graphics/SVG/1.1/DTD/svg11.dtd">
<svg version="1.1" id="Layer_1" xmlns="http://www.w3.org/2000/svg" xmlns:xlink="http://www.w3.org/1999/xlink" x="0px" y="0px"
	 width="92px" height="62px" viewBox="0 0 92 62" enable-background="new 0 0 92 62" xml:space="preserve">
<g>
	<path fill-rule="evenodd" clip-rule="evenodd" fill="#FA7202" d="M39.488,31.968c0-6.089,0.033-12.178-0.023-18.266
		c-0.014-1.522,0.389-1.977,1.949-1.571c5.944,1.547,11.907,3.017,17.88,4.455c1.226,0.296,1.755,0.808,1.75,2.154
		c-0.048,12.176-0.043,24.353-0.01,36.529c0.005,1.428-0.374,1.885-1.856,1.502c-6.004-1.555-12.021-3.057-18.055-4.495
		c-1.312-0.313-1.668-0.96-1.658-2.223C39.515,44.025,39.486,37.996,39.488,31.968z M56.574,39.267
		c0.534,0.086,0.957,0.067,1.016-0.623c0.073-0.88-0.396-1.254-1.192-1.454c-4.053-1.02-8.094-2.078-12.147-3.088
		c-0.441-0.111-1.122-0.481-1.308,0.339c-0.153,0.674-0.01,1.302,0.815,1.514C48.029,37.057,52.302,38.162,56.574,39.267z
		 M56.484,34.364c0.504,0.127,0.956,0.128,1.082-0.521c0.196-1.028-0.483-1.342-1.285-1.542c-3.946-0.985-7.891-1.976-11.839-2.946
		c-0.524-0.129-1.206-0.577-1.478,0.307c-0.256,0.835,0.184,1.356,0.997,1.561C48.135,32.272,52.309,33.316,56.484,34.364z
		 M43.917,38.85c-0.546-0.113-0.946-0.053-1.003,0.624c-0.063,0.772,0.287,1.219,1.03,1.405c4.114,1.03,8.227,2.072,12.342,3.099
		c0.528,0.133,1.105,0.223,1.267-0.521c0.14-0.657-0.062-1.152-0.793-1.336C52.478,41.035,48.197,39.94,43.917,38.85z
		 M56.521,48.896c0.525,0.128,0.949,0.09,1.052-0.564c0.143-0.905-0.382-1.287-1.152-1.479c-4.06-1.015-8.12-2.029-12.179-3.045
		c-0.52-0.13-1.099-0.346-1.29,0.417c-0.186,0.744,0.115,1.266,0.89,1.461C48.068,46.757,52.295,47.827,56.521,48.896z"/>
	<path fill-rule="evenodd" clip-rule="evenodd" fill="#FA7202" d="M36.189,32.445c0,6.022-0.025,12.045,0.022,18.065
		c0.01,1.189-0.369,1.973-1.342,2.657c-3.861,2.719-7.676,5.505-11.512,8.257c-0.371,0.266-0.747,0.75-1.233,0.532
		c-0.609-0.273-0.356-0.936-0.358-1.427c-0.015-12.221-0.001-24.441-0.027-36.663c-0.003-1.051,0.336-1.758,1.197-2.369
		c3.898-2.768,7.758-5.59,11.641-8.382c0.37-0.264,0.758-0.735,1.242-0.518c0.608,0.274,0.356,0.936,0.358,1.428
		C36.195,20.166,36.189,26.306,36.189,32.445z"/>
	<path fill-rule="evenodd" clip-rule="evenodd" fill="#FA7202" d="M75.203,23.183c0,5.963,0.005,11.927-0.003,17.891
		c-0.003,2.064-0.208,2.236-2.233,2.068c-2.232-0.185-4.464-0.489-6.698-0.506c-1.755-0.013-1.985-0.858-1.976-2.319
		c0.047-7.911-0.014-15.824,0.053-23.735c0.012-1.49-0.418-2.56-1.509-3.558c-3.699-3.392-7.338-6.848-10.983-10.297
		c-0.361-0.341-1.059-0.65-0.805-1.23c0.247-0.564,0.956-0.3,1.447-0.261c7.112,0.565,14.221,1.177,21.333,1.727
		c1.386,0.107,1.379,0.978,1.378,1.976C75.197,11.019,75.201,17.101,75.203,23.183z"/>
	<path fill-rule="evenodd" clip-rule="evenodd" fill="#FA7202" d="M57.843,13.014c-3.632-0.933-7.033-1.804-10.433-2.683
		c-0.72-0.187-0.82-0.759-0.822-1.385c0-1.771-0.01-3.541,0.005-5.313c0.002-0.332-0.098-0.793,0.336-0.895
		c0.216-0.052,0.556,0.142,0.753,0.322c3.298,3.038,6.584,6.091,9.864,9.15C57.652,12.312,57.663,12.514,57.843,13.014z"/>
</g>
</svg>
