<?xml version="1.0" encoding="utf-8"?>
<!-- Generator: Adobe Illustrator 16.0.3, SVG Export Plug-In . SVG Version: 6.00 Build 0)  -->
<!DOCTYPE svg PUBLIC "-//W3C//DTD SVG 1.1//EN" "http://www.w3.org/Graphics/SVG/1.1/DTD/svg11.dtd">
<svg version="1.1" id="Layer_1" xmlns="http://www.w3.org/2000/svg" xmlns:xlink="http://www.w3.org/1999/xlink" x="0px" y="0px"
	 width="92px" height="62px" viewBox="0 0 92 62" enable-background="new 0 0 92 62" xml:space="preserve">
<g>
	<path fill-rule="evenodd" clip-rule="evenodd" fill="#7609B1" d="M16.342,3.91c0.466-0.989,1.277-1.278,2.326-1.276
		c17.021,0.014,34.043,0.009,51.063,0.012c1.744,0,2.321,0.563,2.323,2.273c0.006,5.1-0.014,10.201,0.018,15.301
		c0.006,0.872-0.228,1.216-1.15,1.187c-2.473-0.083-2.128,0.279-2.139-2.127c-0.018-4.09-0.021-8.185,0.01-12.276
		c0.005-0.791-0.212-1.094-1.054-1.093C52.083,5.93,36.425,5.93,20.769,5.91c-0.823-0.002-1.074,0.265-1.071,1.074
		c0.02,10.528,0.021,21.055-0.004,31.582c-0.002,0.905,0.363,1.071,1.164,1.07c11.625-0.02,23.248-0.013,34.873-0.011
		c1.384,0,1.386,0.001,1.387,1.358c0.003,1.452,0.003,2.906,0,4.358c-0.003,1.259-0.012,1.269-1.309,1.269
		c-7.563,0.002-15.125,0.002-22.687,0.002c-4.773,0-9.549-0.015-14.323,0.01c-1.068,0.005-1.922-0.279-2.457-1.254
		C16.342,31.549,16.342,17.729,16.342,3.91z"/>
	<path fill-rule="evenodd" clip-rule="evenodd" fill="#7609B1" d="M35.328,14.399c5.185,0.124,10.369,0.207,15.55,0.396
		c1.717,0.062,3.435,0.087,5.151,0.135c1.312,0.038,1.591,0.313,1.416,1.616c-0.417,3.11-0.883,6.217-1.303,9.327
		c-0.259,1.913,0.148,2.227-2.663,2.264c-5.303,0.065-10.603,0.22-15.905,0.333c-1.437,0.03-1.493-0.025-1.989-1.371
		c-1.36-3.699-2.729-7.396-4.095-11.094c-0.446-1.212-0.143-1.641,1.171-1.639c0.89,0,1.778,0,2.667,0
		C35.328,14.378,35.328,14.387,35.328,14.399z"/>
	<path fill-rule="evenodd" clip-rule="evenodd" fill="#7609B1" d="M60.087,38.909c0-4.061-0.006-8.124,0-12.185
		c0.002-1.781,0.57-2.358,2.333-2.363c2.874-0.006,5.75,0.017,8.627-0.012c0.766-0.007,1.051,0.255,1.031,1.033
		c-0.071,2.712,0.374,2.336-2.358,2.359c-1.808,0.019-3.617,0.025-5.427-0.004c-0.677-0.012-0.942,0.215-0.941,0.923
		c0.02,6.818,0.018,13.638,0.003,20.455c-0.002,0.646,0.222,0.902,0.877,0.898c4.536-0.014,9.071-0.018,13.607,0.003
		c0.716,0.003,0.913-0.293,0.908-0.962c-0.024-2.668-0.013-5.336-0.01-8.004c0.001-1.188,0.029-1.225,1.174-1.22
		c2.389,0.011,2.093-0.251,2.104,2.069c0.012,3.054,0.006,6.107,0,9.162c-0.003,1.708-0.604,2.325-2.285,2.327
		c-5.782,0.005-11.563,0.005-17.344,0c-1.733-0.002-2.297-0.564-2.299-2.296C60.081,47.033,60.087,42.972,60.087,38.909z"/>
	<path fill-rule="evenodd" clip-rule="evenodd" fill="#7609B1" d="M44.095,59.642c-4.147,0-8.298,0-12.447,0
		c-0.476,0-0.957,0.02-1.374-0.263c-0.623-0.423-0.938-1.011-0.73-1.758c0.219-0.808,0.803-1.235,1.639-1.248
		c1.599-0.021,3.2-0.009,4.8-0.011c1.037-0.001,2.075-0.029,3.11,0.008c0.657,0.022,0.888-0.223,0.879-0.879
		c-0.031-1.926,0.012-3.853-0.021-5.779c-0.014-0.73,0.25-0.998,0.979-0.989c2.192,0.029,4.385,0.026,6.577,0.002
		c0.694-0.007,0.938,0.27,0.928,0.953c-0.028,1.927,0.015,3.853-0.021,5.778c-0.014,0.708,0.252,0.923,0.937,0.916
		c2.55-0.027,5.099-0.017,7.646-0.005c1.013,0.005,1.656,0.443,1.857,1.204c0.295,1.109-0.494,2.058-1.777,2.063
		c-3.497,0.016-6.994,0.007-10.492,0.007C45.755,59.642,44.926,59.642,44.095,59.642z"/>
	<path fill-rule="evenodd" clip-rule="evenodd" fill="#7609B1" d="M87.004,27.285c0,2.49,0.01,4.981,0,7.47
		c-0.006,1.5-0.609,2.1-2.113,2.105c-2.698,0.007-5.396,0.007-8.093,0c-1.339-0.006-1.922-0.499-2.026-1.827
		c-0.085-1.061-0.052-2.133-0.053-3.2c-0.004-3.794-0.004-7.587,0.002-11.383c0-0.443,0.018-0.89,0.088-1.327
		c0.156-0.959,0.711-1.514,1.674-1.523c2.935-0.033,5.867-0.035,8.804-0.003c1.112,0.014,1.707,0.728,1.715,1.952
		C87.016,22.128,87.004,24.707,87.004,27.285z M76.511,26.149c0,1.957,0.025,3.912-0.014,5.867c-0.013,0.741,0.17,1.067,0.987,1.051
		c2.251-0.047,4.505-0.038,6.755-0.005c0.736,0.012,0.986-0.25,0.982-0.979c-0.022-3.941-0.022-7.882-0.001-11.823
		c0.005-0.705-0.197-1.015-0.958-1.002c-2.282,0.036-4.563,0.033-6.846,0.001c-0.703-0.01-0.929,0.247-0.918,0.933
		C76.531,22.178,76.512,24.165,76.511,26.149z"/>
	<path fill-rule="evenodd" clip-rule="evenodd" fill="#7609B1" d="M43.314,33.461c-3.468,0.001-6.938,0.004-10.406-0.001
		c-1.495-0.001-1.779-0.424-1.219-1.773c0.047-0.109,0.071-0.231,0.136-0.327c1.37-1.973,1.03-3.859,0.087-5.963
		c-1.807-4.026-3.346-8.173-5-12.267c-0.435-1.077-1.744-1.727-2.865-1.446c-0.874,0.219-1.618-0.104-1.93-0.841
		c-0.303-0.718-0.039-1.555,0.614-1.944c0.685-0.413,1.554-0.267,2.04,0.449c0.518,0.76,1.347,0.941,2.092,1.262
		c0.665,0.286,1.108,0.661,1.388,1.364c2.102,5.288,4.231,10.565,6.385,15.833c0.291,0.716-0.022,1.267-0.235,1.867
		c-0.237,0.664-0.966,1.462-0.666,1.922c0.361,0.553,1.366,0.197,2.086,0.2c5.989,0.019,11.977,0.008,17.967,0.015
		c0.627,0,1.48-0.165,1.491,0.794c0.006,0.935-0.824,0.848-1.469,0.851C50.313,33.465,46.813,33.461,43.314,33.461z"/>
	<path fill-rule="evenodd" clip-rule="evenodd" fill="#7609B1" d="M71.058,43.43c-1.241,0-2.483-0.02-3.725,0.008
		c-0.666,0.015-0.992-0.226-0.98-0.918c0.019-1.034,0.015-2.068,0.001-3.103c-0.008-0.586,0.22-0.857,0.839-0.851
		c1.921,0.022,3.843-0.021,5.764,0.022c1.022,0.022,1.706,0.869,2.59,1.257c0.346,0.151,0.214,0.701,0.211,1.077
		c-0.02,2.934,0.312,2.463-2.482,2.507C72.535,43.441,71.796,43.431,71.058,43.43z"/>
	<path fill-rule="evenodd" clip-rule="evenodd" fill="#7609B1" d="M69.249,30.74c0.68,0,1.361,0.011,2.041-0.002
		c0.507-0.011,0.772,0.189,0.768,0.723c-0.011,1.154-0.005,2.307-0.003,3.459c0,0.438-0.22,0.658-0.65,0.659
		c-1.449,0.001-2.898,0.001-4.348,0c-0.425,0-0.675-0.218-0.679-0.646c-0.014-1.182-0.011-2.366-0.009-3.547
		c0.002-0.494,0.293-0.658,0.751-0.65C67.83,30.75,68.54,30.74,69.249,30.74z"/>
	<path fill-rule="evenodd" clip-rule="evenodd" fill="#7609B1" d="M51.953,38.282c-1.137,0.003-2.127-0.955-2.138-2.067
		c-0.013-1.162,0.993-2.19,2.13-2.181c1.168,0.01,2.141,1.01,2.124,2.18C54.054,37.365,53.118,38.278,51.953,38.282z"/>
	<path fill-rule="evenodd" clip-rule="evenodd" fill="#7609B1" d="M38.448,36.215c-0.011,1.189-0.892,2.067-2.073,2.067
		c-1.218,0.003-2.118-0.92-2.093-2.143c0.022-1.159,1.031-2.132,2.186-2.105C37.601,34.062,38.462,35.009,38.448,36.215z"/>
	<path fill-rule="evenodd" clip-rule="evenodd" fill="#7609B1" d="M78.966,25.137c0-0.898,0.014-1.668-0.003-2.438
		c-0.014-0.577,0.19-0.89,0.823-0.866c0.769,0.026,1.539,0.021,2.309,0.002c0.521-0.013,0.771,0.214,0.771,0.731
		c-0.002,1.657,0,3.315-0.004,4.974c-0.001,0.501-0.248,0.77-0.767,0.756c-0.029-0.003-0.061,0.002-0.089,0.002
		C78.302,28.23,79.053,28.92,78.966,25.137z"/>
</g>
</svg>
