<?xml version="1.0" encoding="utf-8"?>
<!-- Generator: Adobe Illustrator 16.0.3, SVG Export Plug-In . SVG Version: 6.00 Build 0)  -->
<!DOCTYPE svg PUBLIC "-//W3C//DTD SVG 1.1//EN" "http://www.w3.org/Graphics/SVG/1.1/DTD/svg11.dtd">
<svg version="1.1" id="Layer_1" xmlns="http://www.w3.org/2000/svg" xmlns:xlink="http://www.w3.org/1999/xlink" x="0px" y="0px"
	 width="92px" height="62px" viewBox="0 0 92 62" enable-background="new 0 0 92 62" xml:space="preserve">
<g>
	<path fill-rule="evenodd" clip-rule="evenodd" fill="#FA7202" d="M59.411,0.514c0.903,0,1.805,0,2.709,0
		c0.238,1.978,0.094,3.964,0.09,5.944c-0.002,1.05,0.262,1.665,1.438,1.556c0.771-0.072,1.23,0.275,1.2,1.075
		c-0.045,1.178,0.608,1.472,1.628,1.402c0.495-0.034,0.993-0.007,1.489-0.003c1.874,0.016,1.966,0.087,1.97,2.006
		c0.013,6.225,0.003,12.449,0.008,18.675c0.009,10.104,0.023,20.208,0.036,30.313c-14.542,0-29.085,0-43.627,0
		c0.013-0.857,0.037-1.714,0.037-2.57c0.003-15.427,0-30.854,0.006-46.282c0-2.088,0.061-2.13,2.108-2.141
		c0.496-0.004,0.993-0.024,1.488,0c0.903,0.045,1.506-0.221,1.478-1.265c-0.021-0.816,0.334-1.297,1.215-1.212
		c1.175,0.114,1.439-0.504,1.438-1.554c-0.004-1.98-0.148-3.967,0.089-5.944c0.903,0,1.806,0,2.709,0
		c0,1.985,0.017,3.972-0.005,5.957c-0.011,0.942,0.209,1.621,1.341,1.539c0.899-0.063,1.207,0.437,1.173,1.248
		c-0.042,0.96,0.489,1.234,1.358,1.231c4.919-0.015,9.837-0.015,14.757,0c0.869,0.003,1.399-0.271,1.358-1.231
		c-0.034-0.812,0.274-1.312,1.173-1.248c1.133,0.082,1.352-0.597,1.341-1.539C59.394,4.485,59.411,2.499,59.411,0.514z
		 M67.036,36.12c0-7.134,0.004-14.268-0.004-21.402c0-0.604,0.173-1.319-0.835-1.368c-0.918-0.045-1.376,0.313-1.326,1.243
		c0.053,1.02-0.516,1.341-1.428,1.334c-1.761-0.013-3.521-0.005-5.283-0.008c-0.789-0.001-1.329-0.284-1.254-1.188
		c0.101-1.211-0.596-1.396-1.605-1.389c-4.74,0.029-9.481,0.035-14.223-0.004c-1.089-0.009-1.768,0.224-1.661,1.481
		c0.062,0.742-0.367,1.078-1.065,1.082c-1.94,0.009-3.881,0.005-5.822-0.009c-0.721-0.005-1.068-0.407-1.054-1.116
		c0.016-0.888-0.213-1.487-1.295-1.43c-1.213,0.066-0.875,0.95-0.875,1.596c-0.015,14.041,0.004,28.084-0.038,42.126
		c-0.004,1.289,0.352,1.717,1.671,1.713c11.468-0.043,22.937-0.048,34.406,0.004c1.415,0.006,1.73-0.475,1.721-1.805
		C67.002,50.028,67.035,43.074,67.036,36.12z"/>
	<path fill-rule="evenodd" clip-rule="evenodd" fill="#FA7202" d="M48.02,41.262c-3.968,0-7.938-0.021-11.907,0.013
		c-1.177,0.011-1.332-0.331-0.734-1.313c2.137-3.503,4.242-7.025,6.333-10.556c0.521-0.883,0.927-1.002,1.462-0.022
		c0.519,0.949,1.133,1.845,1.653,2.793c0.478,0.872,0.837,0.916,1.342,0.006c1.378-2.485,2.798-4.946,4.211-7.412
		c0.925-1.617,0.97-1.619,1.866-0.059c2.872,5.008,5.739,10.018,8.604,15.029c0.812,1.419,0.751,1.518-0.921,1.521
		C55.96,41.268,51.989,41.263,48.02,41.262z M51.371,38.431c1.398,0,2.798-0.013,4.196,0.006c0.85,0.012,1.214-0.175,0.687-1.076
		c-1.479-2.532-2.925-5.085-4.362-7.64c-0.369-0.655-0.645-0.816-1.079-0.043c-1.432,2.559-2.888,5.105-4.354,7.644
		c-0.52,0.897-0.115,1.113,0.719,1.109C48.574,38.423,49.973,38.429,51.371,38.431z M41.351,38.429
		c1.021,0.187,1.516-0.559,2.061-1.41c0.652-1.016,0.014-1.684-0.411-2.453c-0.367-0.664-0.697-0.757-1.104-0.015
		c-0.477,0.867-1.017,1.699-1.512,2.555C39.721,38.257,39.836,38.436,41.351,38.429z"/>
	<path fill-rule="evenodd" clip-rule="evenodd" fill="#FA7202" d="M48.186,48.861c-3.02,0-6.038,0.002-9.057-0.001
		c-0.404,0-0.812,0.005-1.214-0.037c-0.719-0.074-1.187-0.493-1.243-1.204c-0.063-0.782,0.38-1.288,1.145-1.429
		c0.528-0.096,1.074-0.125,1.612-0.126c5.811-0.009,11.623-0.008,17.435-0.003c0.493,0.001,0.991,0.027,1.48,0.091
		c0.822,0.107,1.364,0.577,1.315,1.427c-0.051,0.852-0.644,1.258-1.474,1.265c-1.98,0.017-3.964,0.016-5.946,0.018
		C50.889,48.864,49.536,48.863,48.186,48.861z"/>
	<path fill-rule="evenodd" clip-rule="evenodd" fill="#FA7202" d="M48.208,53.982c-1.575,0-3.149,0.004-4.724-0.001
		c-0.906-0.003-1.67-0.317-1.714-1.32c-0.048-1.091,0.753-1.481,1.699-1.489c3.149-0.026,6.297-0.026,9.445,0.003
		c0.889,0.009,1.653,0.392,1.646,1.404c-0.007,1.095-0.811,1.4-1.766,1.403C51.266,53.988,49.735,53.984,48.208,53.982z"/>
</g>
</svg>
