<?xml version="1.0" encoding="utf-8"?>
<!-- Generator: Adobe Illustrator 16.0.3, SVG Export Plug-In . SVG Version: 6.00 Build 0)  -->
<!DOCTYPE svg PUBLIC "-//W3C//DTD SVG 1.1//EN" "http://www.w3.org/Graphics/SVG/1.1/DTD/svg11.dtd">
<svg version="1.1" id="Layer_1" xmlns="http://www.w3.org/2000/svg" xmlns:xlink="http://www.w3.org/1999/xlink" x="0px" y="0px"
	 width="92px" height="62px" viewBox="0 0 92 62" enable-background="new 0 0 92 62" xml:space="preserve">
<g>
	<g>
		<path fill="#0A90CF" d="M46,61c-16.542,0-30-13.458-30-30S29.458,1,46,1s30,13.458,30,30S62.542,61,46,61z M46,2.343
			C30.199,2.343,17.343,15.199,17.343,31S30.199,59.657,46,59.657c15.802,0,28.657-12.855,28.657-28.657S61.801,2.343,46,2.343z"/>
	</g>
	<g>
		<path fill="#0A90CF" d="M58.24,41.551c-4.25,0-7.707-3.457-7.707-7.707s3.458-7.707,7.707-7.707s7.707,3.458,7.707,7.707
			S62.489,41.551,58.24,41.551z M58.24,28.153c-3.139,0-5.692,2.553-5.692,5.692c0,3.138,2.553,5.692,5.692,5.692
			c3.138,0,5.692-2.554,5.692-5.692C63.932,30.706,61.378,28.153,58.24,28.153z"/>
	</g>
	<g>
		
			<rect x="47.332" y="36.647" transform="matrix(0.707 0.7072 -0.7072 0.707 45.2925 -21.2896)" fill="#0A90CF" width="2.015" height="14.735"/>
	</g>
	<g>
		<g>
			<path fill="#0A90CF" d="M35.061,44.015c-0.066,0-0.133-0.008-0.2-0.026L31.118,43c-0.416-0.11-0.664-0.535-0.553-0.951
				l0.721-2.74c-0.371-0.223-0.725-0.47-1.061-0.738l-2.315,1.635c-0.17,0.117-0.39,0.162-0.58,0.129
				c-0.205-0.035-0.386-0.15-0.505-0.318l-2.232-3.17c-0.12-0.168-0.167-0.377-0.13-0.58c0.034-0.205,0.151-0.385,0.319-0.505
				l2.311-1.628c-0.138-0.407-0.251-0.825-0.335-1.249l-2.822-0.239c-0.43-0.036-0.747-0.414-0.711-0.841l0.324-3.859
				c0.019-0.207,0.116-0.397,0.274-0.531c0.16-0.131,0.375-0.194,0.566-0.179l2.823,0.235c0.155-0.401,0.337-0.795,0.544-1.172
				l-2.008-1.995c-0.305-0.302-0.306-0.795-0.001-1.099l2.731-2.75c0.145-0.148,0.343-0.232,0.55-0.232h0.001
				c0.206,0,0.405,0.082,0.549,0.228l2.006,1.996c0.379-0.211,0.769-0.394,1.17-0.552l-0.256-2.819
				c-0.041-0.43,0.277-0.807,0.704-0.848l3.859-0.353c0.212-0.014,0.411,0.045,0.569,0.179c0.159,0.132,0.257,0.322,0.275,0.527
				l0.259,2.822c0.421,0.081,0.839,0.193,1.249,0.331l1.616-2.322c0.241-0.353,0.729-0.438,1.082-0.194l3.183,2.21
				c0.17,0.119,0.286,0.3,0.323,0.502c0.035,0.203-0.011,0.414-0.128,0.584l-1.615,2.322c0.269,0.331,0.519,0.684,0.745,1.057
				l2.731-0.743c0.193-0.056,0.411-0.028,0.593,0.075c0.178,0.104,0.31,0.272,0.365,0.473l1.014,3.739
				c0.111,0.414-0.134,0.841-0.547,0.953l-2.733,0.742c-0.007,0.432-0.043,0.864-0.106,1.29l2.567,1.188
				c0.392,0.183,0.563,0.645,0.381,1.035l-1.626,3.518c-0.086,0.188-0.245,0.334-0.439,0.403c-0.191,0.071-0.408,0.065-0.594-0.024
				l-2.571-1.188c-0.282,0.325-0.586,0.631-0.913,0.917l1.207,2.563c0.089,0.186,0.1,0.398,0.028,0.594
				c-0.068,0.194-0.213,0.353-0.401,0.439l-3.508,1.651c-0.185,0.089-0.399,0.098-0.594,0.026c-0.194-0.071-0.353-0.213-0.442-0.401
				l-1.203-2.561c-0.21,0.033-0.424,0.061-0.639,0.081c-0.22,0.019-0.436,0.028-0.648,0.034l-0.727,2.74
				C35.722,43.786,35.405,44.015,35.061,44.015z M32.268,41.693l2.239,0.592l0.681-2.571c0.093-0.353,0.416-0.613,0.785-0.58
				l0.355,0.008c0.239,0,0.48-0.01,0.72-0.028c0.353-0.037,0.709-0.093,1.061-0.171c0.34-0.081,0.712,0.1,0.871,0.431l1.128,2.402
				l2.098-0.986l-1.131-2.402c-0.156-0.333-0.06-0.726,0.227-0.949c0.572-0.44,1.078-0.951,1.509-1.517
				c0.224-0.292,0.615-0.39,0.947-0.235l2.414,1.115l0.971-2.105l-2.409-1.115c-0.333-0.152-0.513-0.515-0.434-0.872
				c0.152-0.699,0.211-1.416,0.174-2.129c-0.021-0.366,0.219-0.698,0.572-0.791l2.568-0.698l-0.606-2.234l-2.561,0.693
				c-0.352,0.097-0.723-0.065-0.893-0.386c-0.342-0.646-0.76-1.235-1.236-1.746c-0.25-0.27-0.281-0.675-0.069-0.975l1.516-2.182
				l-1.902-1.322l-1.517,2.178c-0.207,0.3-0.59,0.416-0.935,0.275c-0.665-0.271-1.36-0.456-2.066-0.545
				c-0.364-0.047-0.646-0.339-0.677-0.704l-0.241-2.648l-2.308,0.211l0.239,2.648c0.034,0.361-0.19,0.702-0.539,0.811
				c-0.678,0.215-1.329,0.523-1.935,0.911c-0.301,0.197-0.709,0.156-0.969-0.103l-1.881-1.872l-1.635,1.645l1.884,1.875
				c0.26,0.257,0.304,0.66,0.107,0.969c-0.384,0.6-0.685,1.253-0.901,1.939c-0.109,0.349-0.458,0.566-0.807,0.543l-2.648-0.222
				l-0.193,2.308l2.647,0.225c0.362,0.029,0.656,0.308,0.706,0.669c0.099,0.718,0.287,1.416,0.559,2.073
				c0.138,0.337,0.026,0.726-0.272,0.935l-2.167,1.527l1.335,1.894l2.172-1.531c0.294-0.21,0.703-0.184,0.974,0.063
				c0.521,0.474,1.111,0.884,1.756,1.219c0.321,0.168,0.487,0.537,0.392,0.89L32.268,41.693z M36.295,35.16
				c-2.167,0-4.017-1.691-4.207-3.851c-0.104-1.125,0.241-2.225,0.967-3.095c0.724-0.868,1.739-1.401,2.864-1.499
				c2.327-0.229,4.385,1.504,4.598,3.828c0.21,2.324-1.507,4.388-3.832,4.599C36.555,35.156,36.425,35.16,36.295,35.16z
				 M36.308,28.255c-0.084,0-0.167,0.001-0.25,0.01c-0.709,0.065-1.35,0.399-1.809,0.947c-0.458,0.55-0.674,1.245-0.611,1.957
				c0.13,1.448,1.417,2.58,2.905,2.422c1.471-0.132,2.556-1.436,2.423-2.904C38.838,29.299,37.696,28.255,36.308,28.255z"/>
		</g>
	</g>
	<g>
		<g>
			<g>
				<path fill="#0A90CF" d="M50.992,23.355c-0.029,0-0.059-0.003-0.089-0.012l-1.676-0.443c-0.185-0.05-0.297-0.24-0.248-0.426
					l0.324-1.227c-0.167-0.1-0.325-0.21-0.475-0.331l-1.038,0.732c-0.076,0.053-0.175,0.073-0.26,0.058
					c-0.092-0.016-0.172-0.067-0.226-0.142l-1-1.42c-0.054-0.075-0.075-0.169-0.059-0.26c0.016-0.091,0.068-0.172,0.143-0.226
					l1.035-0.729c-0.062-0.182-0.113-0.369-0.149-0.559l-1.263-0.107c-0.194-0.017-0.334-0.186-0.319-0.377l0.145-1.728
					c0.008-0.093,0.052-0.178,0.123-0.238c0.071-0.058,0.168-0.086,0.254-0.08l1.263,0.106c0.07-0.18,0.151-0.356,0.244-0.525
					l-0.9-0.894c-0.136-0.136-0.136-0.356-0.001-0.492l1.224-1.231c0.064-0.067,0.153-0.104,0.247-0.104l0,0
					c0.092,0,0.181,0.037,0.247,0.103l0.897,0.893c0.17-0.094,0.345-0.176,0.524-0.247l-0.114-1.262
					c-0.019-0.193,0.123-0.361,0.314-0.38l1.728-0.158c0.096-0.007,0.185,0.02,0.255,0.08c0.071,0.059,0.114,0.144,0.124,0.236
					l0.115,1.264c0.189,0.037,0.376,0.086,0.559,0.147l0.724-1.039c0.107-0.159,0.327-0.197,0.484-0.087l1.426,0.99
					c0.076,0.054,0.127,0.134,0.145,0.225c0.016,0.091-0.005,0.185-0.058,0.262l-0.723,1.04c0.121,0.148,0.231,0.307,0.333,0.474
					l1.223-0.333c0.086-0.025,0.185-0.013,0.266,0.034c0.08,0.046,0.138,0.121,0.164,0.211l0.453,1.675
					c0.05,0.186-0.059,0.377-0.244,0.427l-1.224,0.333c-0.003,0.193-0.02,0.387-0.049,0.577l1.15,0.532
					c0.176,0.082,0.25,0.289,0.17,0.463l-0.728,1.576c-0.039,0.084-0.11,0.149-0.197,0.18c-0.086,0.032-0.184,0.029-0.266-0.01
					l-1.152-0.533c-0.126,0.146-0.262,0.283-0.408,0.411l0.539,1.148c0.041,0.083,0.044,0.178,0.013,0.266
					c-0.03,0.086-0.095,0.158-0.18,0.197l-1.57,0.739c-0.084,0.04-0.18,0.043-0.266,0.012c-0.088-0.032-0.159-0.096-0.198-0.18
					l-0.539-1.147c-0.095,0.015-0.19,0.027-0.286,0.037c-0.098,0.008-0.195,0.012-0.29,0.015l-0.325,1.227
					C51.289,23.253,51.147,23.355,50.992,23.355z M49.742,22.316l1.002,0.265l0.306-1.151c0.042-0.158,0.186-0.274,0.35-0.26
					l0.16,0.003c0.106,0,0.215-0.004,0.323-0.012c0.157-0.017,0.317-0.042,0.475-0.077c0.151-0.036,0.319,0.045,0.39,0.193
					l0.505,1.077l0.939-0.441l-0.506-1.076c-0.069-0.15-0.027-0.326,0.103-0.425c0.256-0.197,0.482-0.426,0.675-0.679
					c0.1-0.131,0.274-0.175,0.424-0.106l1.081,0.5l0.434-0.943l-1.078-0.499c-0.148-0.067-0.23-0.231-0.194-0.39
					c0.068-0.313,0.094-0.634,0.078-0.953c-0.009-0.164,0.098-0.313,0.257-0.355l1.149-0.312l-0.271-1l-1.148,0.311
					c-0.156,0.043-0.323-0.029-0.398-0.173c-0.154-0.289-0.341-0.552-0.554-0.781c-0.113-0.121-0.126-0.302-0.032-0.438l0.68-0.977
					l-0.852-0.592l-0.679,0.976c-0.093,0.134-0.265,0.186-0.418,0.124c-0.299-0.122-0.61-0.205-0.926-0.245
					c-0.163-0.02-0.289-0.151-0.303-0.314l-0.108-1.187l-1.034,0.095l0.106,1.186c0.016,0.162-0.085,0.314-0.241,0.363
					c-0.303,0.097-0.594,0.235-0.866,0.408c-0.135,0.088-0.317,0.07-0.434-0.046l-0.842-0.839l-0.732,0.737l0.844,0.839
					c0.117,0.116,0.136,0.296,0.048,0.434c-0.173,0.269-0.307,0.562-0.404,0.869c-0.049,0.157-0.205,0.253-0.361,0.243l-1.186-0.099
					l-0.086,1.034l1.185,0.101c0.163,0.013,0.294,0.138,0.316,0.3c0.045,0.321,0.13,0.634,0.251,0.928
					c0.062,0.151,0.012,0.326-0.121,0.418l-0.972,0.684l0.598,0.848l0.973-0.685c0.131-0.095,0.315-0.083,0.436,0.028
					c0.233,0.212,0.499,0.396,0.787,0.546c0.145,0.075,0.218,0.24,0.176,0.398L49.742,22.316z M51.545,19.391
					c-0.971,0-1.8-0.757-1.885-1.725c-0.046-0.503,0.109-0.996,0.433-1.385c0.324-0.389,0.779-0.627,1.283-0.671
					c1.042-0.103,1.964,0.674,2.058,1.714c0.094,1.041-0.674,1.965-1.714,2.06C51.661,19.389,51.604,19.391,51.545,19.391z
					 M51.551,16.298c-0.038,0-0.075,0-0.111,0.004c-0.319,0.029-0.606,0.179-0.811,0.424c-0.205,0.246-0.301,0.557-0.274,0.875
					c0.058,0.649,0.635,1.156,1.301,1.085c0.659-0.059,1.144-0.644,1.085-1.301C52.684,16.766,52.173,16.298,51.551,16.298z"/>
			</g>
		</g>
	</g>
</g>
</svg>
