<?xml version="1.0" encoding="utf-8"?>
<!-- Generator: Adobe Illustrator 16.0.3, SVG Export Plug-In . SVG Version: 6.00 Build 0)  -->
<!DOCTYPE svg PUBLIC "-//W3C//DTD SVG 1.1//EN" "http://www.w3.org/Graphics/SVG/1.1/DTD/svg11.dtd">
<svg version="1.1" id="Layer_1" xmlns="http://www.w3.org/2000/svg" xmlns:xlink="http://www.w3.org/1999/xlink" x="0px" y="0px"
	 width="92px" height="62px" viewBox="0 0 92 62" enable-background="new 0 0 92 62" xml:space="preserve">
<g>
	<g>
		<path fill="#0A90CF" d="M40.94,60.984c-16.542,0-30-13.458-30-30c0-16.542,13.458-30,30-30s30,13.458,30,30
			C70.94,47.526,57.482,60.984,40.94,60.984z M40.94,2.328c-15.802,0-28.657,12.855-28.657,28.656S25.139,59.641,40.94,59.641
			s28.656-12.855,28.656-28.656S56.742,2.328,40.94,2.328z"/>
	</g>
	<g>
		<path fill="#0A90CF" d="M36.015,39.715c-7.531,0-13.657-6.126-13.657-13.656c0-7.53,6.126-13.657,13.657-13.657
			c7.53,0,13.656,6.126,13.656,13.657C49.671,33.589,43.545,39.715,36.015,39.715z M36.015,15.089c-6.049,0-10.97,4.921-10.97,10.97
			s4.921,10.97,10.97,10.97c6.049,0,10.97-4.921,10.97-10.97S42.064,15.089,36.015,15.089z"/>
	</g>
	<g>
		
			<rect x="41.899" y="40.253" transform="matrix(0.7071 0.7071 -0.7071 0.7071 44.5204 -24.2843)" fill="#0A90CF" width="19.347" height="2.686"/>
	</g>
</g>
</svg>
