<?xml version="1.0" encoding="utf-8"?>
<!-- Generator: Adobe Illustrator 16.0.3, SVG Export Plug-In . SVG Version: 6.00 Build 0)  -->
<!DOCTYPE svg PUBLIC "-//W3C//DTD SVG 1.1//EN" "http://www.w3.org/Graphics/SVG/1.1/DTD/svg11.dtd">
<svg version="1.1" id="Layer_1" xmlns="http://www.w3.org/2000/svg" xmlns:xlink="http://www.w3.org/1999/xlink" x="0px" y="0px"
	 width="92px" height="62px" viewBox="0 0 92 62" enable-background="new 0 0 92 62" xml:space="preserve">
<g>
	<path fill-rule="evenodd" clip-rule="evenodd" fill="#7609B1" d="M12.321,7.542c1.588-3.435,4.354-4.419,8-4.393
		c15.596,0.113,31.191,0.046,46.788,0.05c4.969,0.001,7.247,2.263,7.251,7.186c0.004,4.273-0.042,8.547,0.023,12.82
		c0.022,1.465-0.393,2.102-1.973,2.063c-4.404-0.108-3.798,0.385-3.848-3.824c-0.016-1.332-0.018-2.664-0.012-3.996
		c0.003-0.825-0.395-1.229-1.216-1.229c-0.388-0.001-0.776-0.013-1.165-0.013c-15.263-0.001-30.525-0.002-45.789,0.001
		c-2.311,0-2.318,0.009-2.318,2.312c-0.004,8.658-0.004,17.317,0,25.976c0,2.346,0.007,2.351,2.441,2.352
		c7.993,0.004,15.985,0,23.978,0.009c2.063,0.002,2.149,0.084,2.145,2.179c-0.012,4.354,0.396,3.814-3.823,3.827
		c-7.493,0.021-14.988-0.102-22.478,0.052c-3.645,0.074-6.415-0.955-8.005-4.391C12.321,34.861,12.321,21.201,12.321,7.542z
		 M20.134,11.826c2.102,0.002,2.176-0.07,2.178-2.109c0-2.068-0.106-2.178-2.133-2.182c-2.072-0.003-2.163,0.086-2.167,2.136
		C18.008,11.771,18.061,11.824,20.134,11.826z"/>
	<path fill-rule="evenodd" clip-rule="evenodd" fill="#7609B1" d="M79.679,47.815c-1.322,2.229-2.683,4.438-3.948,6.7
		c-0.486,0.872-0.96,1.063-1.781,0.49c-0.548-0.383-1.142-0.704-1.727-1.032c-1.324-0.745-2.636-0.01-2.698,1.503
		c-0.005,0.09-0.002,0.179-0.003,0.269c-0.051,3.36,0.51,3.072-3.078,3.085c-1.61,0.006-3.222-0.053-4.829,0.018
		c-1.191,0.053-1.625-0.44-1.533-1.58c0.05-0.622,0.03-1.252-0.002-1.877c-0.073-1.419-1.25-2.093-2.521-1.461
		c-0.04,0.02-0.077,0.046-0.118,0.062c-0.982,0.382-1.814,1.643-2.811,1.261c-0.923-0.354-1.179-1.71-1.734-2.622
		c-0.743-1.223-1.395-2.504-2.19-3.69c-0.746-1.112-0.471-1.776,0.675-2.283c0.488-0.216,0.953-0.498,1.397-0.795
		c1.176-0.787,1.148-2.294-0.04-3.063c-2.767-1.79-2.764-1.789-1.052-4.686c0.773-1.31,1.568-2.607,2.291-3.943
		c0.436-0.804,0.939-1.005,1.718-0.502c0.412,0.267,0.847,0.5,1.273,0.746c1.67,0.963,3.102,0.14,3.118-1.813
		c0.023-3.019-0.28-2.764,2.868-2.771c1.744-0.004,3.489,0.025,5.232-0.007c0.967-0.018,1.411,0.363,1.339,1.351
		c-0.039,0.533-0.02,1.073,0.001,1.609c0.063,1.573,1.632,2.453,3.031,1.707c2.593-1.383,2.573-1.372,4.027,1.167
		c0.998,1.745,2.061,3.453,3.094,5.177c0,0.18,0,0.359,0,0.538c-1.039,0.303-1.914,0.933-2.809,1.494
		c-0.914,0.573-0.99,2.321-0.123,2.871c0.93,0.588,1.826,1.273,2.932,1.541C79.679,47.457,79.679,47.636,79.679,47.815z
		 M69.766,44.11c-0.007-2.864-2.03-4.872-4.915-4.88c-2.878-0.008-5.021,2.125-5.006,4.982c0.015,2.743,2.209,4.914,4.97,4.915
		C67.679,49.128,69.772,47.006,69.766,44.11z"/>
</g>
<path fill-rule="evenodd" clip-rule="evenodd" fill="none" d="M13.953,12.019c-2.073-0.002-2.126-0.055-2.122-2.155
	c0.004-2.05,0.095-2.139,2.167-2.136c2.026,0.004,2.133,0.113,2.133,2.182C16.129,11.949,16.055,12.021,13.953,12.019z"/>
</svg>
