<?xml version="1.0" encoding="utf-8"?>
<!-- Generator: Adobe Illustrator 16.0.3, SVG Export Plug-In . SVG Version: 6.00 Build 0)  -->
<!DOCTYPE svg PUBLIC "-//W3C//DTD SVG 1.1//EN" "http://www.w3.org/Graphics/SVG/1.1/DTD/svg11.dtd">
<svg version="1.1" id="Layer_1" xmlns="http://www.w3.org/2000/svg" xmlns:xlink="http://www.w3.org/1999/xlink" x="0px" y="0px"
	 width="92px" height="62px" viewBox="0 0 92 62" enable-background="new 0 0 92 62" xml:space="preserve">
<g>
	<path fill="#7609B1" d="M46.152,3.726c9.798,0,19.595,0,29.393,0.002c1.594,0,2.148,0.299,2.71,1.622v34.406
		c-10.701,0.002-21.401,0.002-32.103,0.002c-10.701,0-21.4,0-32.103-0.002V5.351c0.563-1.324,1.116-1.623,2.711-1.623
		C26.557,3.726,36.355,3.726,46.152,3.726 M46.152,1.586c-9.797,0-19.595,0.001-29.393,0.002c-2.637,0-3.914,0.893-4.85,3.35
		c0,12.307,0,24.612,0,36.917c0.355,0.014,0.71,0.041,1.066,0.041c11.059,0,22.117,0,33.176,0c11.059,0,22.118,0,33.177,0
		c0.355,0,0.711-0.027,1.066-0.041c0-12.305,0-24.611,0-36.917c-0.937-2.457-2.214-3.35-4.851-3.35
		C65.747,1.587,55.95,1.586,46.152,1.586L46.152,1.586z"/>
	<path fill-rule="evenodd" clip-rule="evenodd" fill="#7609B1" d="M42.467,35.998c0,0.018,0,0.037,0,0.055
		c0.846,0,1.693-0.018,2.539,0.006c0.794,0.023,1.222-0.299,1.506-1.082c3.02-8.345,5.346-16.896,7.655-25.454
		c0.184-0.682,0.091-0.782-0.602-0.825c-1.914-0.122-3.826-0.142-5.742-0.029c-0.641,0.038-0.938,0.271-1.152,0.856
		c-1.199,3.263-2.298,6.559-3.342,9.872c-1.633,5.184-3.053,10.429-4.482,15.67c-0.213,0.787-0.172,0.883,0.617,0.92
		C40.463,36.033,41.466,35.998,42.467,35.998z"/>
	<path fill-rule="evenodd" clip-rule="evenodd" fill="#7609B1" d="M23.709,21.991c-0.06,0.682,0.098,1.655,0.148,2.634
		c0.024,0.444,0.233,0.747,0.633,0.941c0.801,0.392,1.595,0.797,2.394,1.194c3.391,1.689,6.825,3.289,10.283,4.836
		c0.669,0.299,0.722,0.268,0.795-0.416c0.15-1.396,0.238-2.795,0.28-4.199c0.02-0.654-0.238-1.025-0.815-1.297
		c-2.197-1.036-4.381-2.099-6.625-3.031c-0.192-0.079-0.524-0.073-0.507-0.338c0.014-0.244,0.338-0.239,0.536-0.318
		c2.324-0.917,4.553-2.042,6.824-3.079c0.418-0.19,0.596-0.461,0.592-0.929c-0.011-1.295-0.081-2.584-0.286-3.862
		c-0.17-1.062-0.369-1.173-1.361-0.742c-3.64,1.578-7.233,3.259-10.793,5.008C23.406,19.571,23.777,18.899,23.709,21.991z"/>
	<path fill-rule="evenodd" clip-rule="evenodd" fill="#7609B1" d="M69.173,23.178c-0.051-1.273-0.043-2.162-0.141-3.051
		c-0.061-0.559-0.294-0.874-0.782-1.122c-4.096-2.069-8.247-4.022-12.432-5.901c-0.774-0.347-0.842-0.316-0.913,0.545
		c-0.107,1.287-0.154,2.579-0.272,3.864c-0.067,0.725,0.197,1.153,0.861,1.466c2.193,1.039,4.378,2.096,6.623,3.025
		c0.175,0.073,0.455,0.087,0.46,0.317c0.006,0.243-0.279,0.248-0.454,0.316c-2.347,0.917-4.594,2.053-6.879,3.107
		c-0.435,0.2-0.649,0.467-0.631,0.971c0.046,1.292,0.118,2.58,0.333,3.854c0.172,1.026,0.387,1.123,1.339,0.709
		c3.596-1.561,7.097-3.335,10.688-4.896C68.689,25.637,69.646,24.735,69.173,23.178z"/>
	<path fill-rule="evenodd" clip-rule="evenodd" fill="#7609B1" d="M80.09,45.178c-0.936,2.457-2.213,3.352-4.85,3.352
		c-19.596,0.002-39.19,0.002-58.786,0c-2.637,0-3.914-0.895-4.851-3.352c0-0.666,0-1.334,0-2.002H80.09
		C80.09,43.844,80.09,44.512,80.09,45.178z"/>
	<path fill-rule="evenodd" clip-rule="evenodd" fill="#7609B1" d="M46.153,60.74c-2.472,0-4.943,0.004-7.415-0.002
		c-0.802,0-0.861-0.076-0.669-0.85c0.649-2.615,1.318-5.225,1.946-7.844c0.146-0.607,0.438-0.838,1.06-0.836
		c3.384,0.021,6.769,0.021,10.152,0c0.622-0.002,0.916,0.225,1.063,0.834c0.626,2.619,1.296,5.229,1.945,7.844
		c0.192,0.775,0.133,0.852-0.667,0.852C51.096,60.744,48.625,60.74,46.153,60.74z"/>
</g>
</svg>
