<?xml version="1.0" encoding="utf-8"?>
<!-- Generator: Adobe Illustrator 16.0.3, SVG Export Plug-In . SVG Version: 6.00 Build 0)  -->
<!DOCTYPE svg PUBLIC "-//W3C//DTD SVG 1.1//EN" "http://www.w3.org/Graphics/SVG/1.1/DTD/svg11.dtd">
<svg version="1.1" id="Layer_1" xmlns="http://www.w3.org/2000/svg" xmlns:xlink="http://www.w3.org/1999/xlink" x="0px" y="0px"
	 width="92px" height="62px" viewBox="0 0 92 62" enable-background="new 0 0 92 62" xml:space="preserve">
<g>
	<path fill-rule="evenodd" clip-rule="evenodd" fill="#FEAE05" d="M9.664,2.998c0.479-1.017,1.314-1.313,2.392-1.311
		c17.506,0.015,35.01,0.009,52.514,0.011c1.794,0,2.388,0.58,2.39,2.339c0.006,5.245-0.016,10.49,0.018,15.735
		c0.006,0.896-0.234,1.251-1.184,1.221c-2.543-0.086-2.188,0.287-2.198-2.188c-0.019-4.208-0.022-8.417,0.009-12.625
		c0.006-0.814-0.217-1.125-1.083-1.125c-16.101,0.021-32.203,0.021-48.304,0c-0.847-0.001-1.104,0.272-1.103,1.105
		c0.021,10.828,0.022,21.653-0.003,32.478c-0.002,0.931,0.373,1.102,1.196,1.1c11.955-0.019,23.908-0.013,35.863-0.012
		c1.423,0,1.425,0.002,1.426,1.398c0.003,1.493,0.003,2.987,0,4.48c-0.003,1.297-0.012,1.306-1.346,1.306
		c-7.777,0.002-15.554,0.002-23.33,0.002c-4.909,0-9.82-0.015-14.73,0.01c-1.098,0.006-1.976-0.287-2.526-1.289
		C9.664,31.422,9.664,17.209,9.664,2.998z"/>
	<path fill-rule="evenodd" clip-rule="evenodd" fill="#FEAE05" d="M29.189,13.786c5.331,0.127,10.663,0.212,15.991,0.407
		c1.766,0.064,3.532,0.088,5.297,0.139c1.35,0.039,1.637,0.321,1.457,1.662c-0.429,3.199-0.908,6.393-1.34,9.591
		c-0.267,1.968,0.152,2.291-2.738,2.328c-5.453,0.067-10.903,0.227-16.357,0.343c-1.478,0.03-1.535-0.026-2.046-1.411
		c-1.398-3.804-2.805-7.606-4.21-11.409c-0.46-1.245-0.147-1.686,1.203-1.684c0.915,0,1.829,0,2.743,0
		C29.189,13.764,29.189,13.773,29.189,13.786z"/>
	<path fill-rule="evenodd" clip-rule="evenodd" fill="#FEAE05" d="M54.65,38.992c0-4.176-0.006-8.355,0-12.531
		c0.003-1.833,0.587-2.425,2.399-2.431c2.956-0.005,5.913,0.017,8.872-0.011c0.787-0.007,1.081,0.263,1.061,1.062
		c-0.073,2.789,0.385,2.403-2.426,2.427c-1.858,0.019-3.72,0.024-5.58-0.006c-0.696-0.011-0.969,0.222-0.969,0.949
		c0.021,7.012,0.019,14.025,0.003,21.036c-0.002,0.664,0.229,0.929,0.902,0.925c4.665-0.016,9.329-0.019,13.994,0.004
		c0.735,0.002,0.938-0.303,0.934-0.991c-0.024-2.742-0.013-5.486-0.01-8.23c0.001-1.222,0.03-1.259,1.207-1.254
		c2.456,0.012,2.152-0.259,2.163,2.128c0.012,3.14,0.006,6.28,0,9.422c-0.003,1.756-0.622,2.39-2.35,2.392
		c-5.946,0.006-11.891,0.006-17.837,0c-1.782-0.002-2.361-0.579-2.364-2.359C54.645,47.345,54.65,43.169,54.65,38.992z"/>
	<path fill-rule="evenodd" clip-rule="evenodd" fill="#FEAE05" d="M38.205,60.313c-4.266,0-8.533,0-12.801,0
		c-0.489,0-0.984,0.021-1.413-0.271c-0.641-0.435-0.964-1.039-0.752-1.808c0.226-0.831,0.826-1.271,1.686-1.283
		c1.645-0.021,3.291-0.01,4.937-0.012c1.066,0,2.134-0.029,3.198,0.01c0.676,0.022,0.913-0.229,0.904-0.904
		c-0.032-1.98,0.012-3.962-0.022-5.942c-0.015-0.752,0.257-1.026,1.007-1.019c2.255,0.029,4.51,0.028,6.765,0.004
		c0.714-0.008,0.965,0.277,0.954,0.979c-0.029,1.981,0.015,3.962-0.021,5.943c-0.015,0.728,0.259,0.949,0.963,0.941
		c2.621-0.028,5.243-0.019,7.863-0.006c1.041,0.006,1.702,0.456,1.91,1.238c0.304,1.141-0.509,2.116-1.828,2.121
		c-3.597,0.016-7.192,0.008-10.79,0.008C39.912,60.313,39.06,60.313,38.205,60.313z"/>
	<path fill-rule="evenodd" clip-rule="evenodd" fill="#FEAE05" d="M82.332,27.037c0,2.561,0.01,5.123,0,7.682
		c-0.006,1.544-0.627,2.159-2.174,2.164c-2.774,0.008-5.549,0.008-8.322,0c-1.377-0.005-1.977-0.512-2.084-1.877
		c-0.087-1.092-0.053-2.195-0.054-3.291c-0.005-3.902-0.005-7.804,0.002-11.707c0-0.456,0.019-0.916,0.091-1.364
		c0.16-0.987,0.731-1.557,1.721-1.566c3.018-0.034,6.034-0.036,9.054-0.004c1.145,0.015,1.756,0.749,1.763,2.007
		C82.344,21.734,82.332,24.386,82.332,27.037z M71.541,25.868c0,2.013,0.025,4.024-0.015,6.035
		c-0.013,0.761,0.176,1.097,1.016,1.081c2.315-0.049,4.633-0.039,6.946-0.006c0.758,0.014,1.016-0.257,1.012-1.005
		c-0.023-4.054-0.023-8.105-0.002-12.159c0.006-0.724-0.203-1.043-0.985-1.03c-2.347,0.038-4.692,0.034-7.04,0.002
		c-0.723-0.011-0.954,0.253-0.943,0.958C71.563,21.785,71.542,23.828,71.541,25.868z"/>
	<path fill-rule="evenodd" clip-rule="evenodd" fill="#FEAE05" d="M37.402,33.389c-3.566,0.002-7.134,0.004-10.702-0.002
		c-1.537,0-1.83-0.436-1.253-1.824c0.048-0.11,0.073-0.236,0.14-0.335c1.409-2.028,1.061-3.968,0.089-6.132
		c-1.857-4.14-3.439-8.404-5.142-12.615c-0.447-1.107-1.793-1.774-2.946-1.486c-0.898,0.225-1.664-0.107-1.984-0.865
		c-0.312-0.739-0.04-1.6,0.632-2c0.704-0.424,1.597-0.274,2.098,0.461c0.532,0.782,1.385,0.968,2.151,1.298
		c0.685,0.295,1.14,0.679,1.427,1.403c2.161,5.438,4.352,10.865,6.565,16.282c0.301,0.735-0.022,1.302-0.241,1.919
		c-0.244,0.683-0.994,1.504-0.686,1.977c0.372,0.569,1.405,0.203,2.146,0.205c6.159,0.021,12.316,0.009,18.477,0.017
		c0.645,0,1.522-0.171,1.534,0.816c0.006,0.962-0.848,0.872-1.511,0.876C44.599,33.393,41,33.389,37.402,33.389z"/>
	<path fill-rule="evenodd" clip-rule="evenodd" fill="#FEAE05" d="M65.933,43.64c-1.276,0-2.554-0.021-3.83,0.01
		c-0.685,0.015-1.02-0.232-1.009-0.945c0.02-1.063,0.016-2.125,0.002-3.19c-0.008-0.603,0.226-0.882,0.862-0.875
		c1.976,0.022,3.952-0.022,5.928,0.022c1.052,0.022,1.754,0.894,2.663,1.293c0.355,0.155,0.22,0.721,0.217,1.108
		c-0.021,3.017,0.32,2.532-2.553,2.577C67.452,43.651,66.692,43.642,65.933,43.64z"/>
	<path fill-rule="evenodd" clip-rule="evenodd" fill="#FEAE05" d="M64.073,30.59c0.699,0,1.4,0.011,2.099-0.002
		c0.521-0.011,0.795,0.195,0.79,0.745c-0.012,1.186-0.005,2.372-0.003,3.557c0,0.452-0.227,0.677-0.67,0.677
		c-1.49,0.002-2.98,0.002-4.47,0c-0.438,0-0.694-0.224-0.699-0.664c-0.014-1.216-0.011-2.433-0.008-3.647
		c0.001-0.508,0.301-0.677,0.771-0.669C62.613,30.601,63.344,30.59,64.073,30.59z"/>
	<path fill-rule="evenodd" clip-rule="evenodd" fill="#FEAE05" d="M46.286,38.347c-1.169,0.004-2.188-0.983-2.198-2.126
		c-0.014-1.194,1.021-2.253,2.19-2.243c1.201,0.01,2.201,1.039,2.184,2.241C48.446,37.403,47.484,38.343,46.286,38.347z"/>
	<path fill-rule="evenodd" clip-rule="evenodd" fill="#FEAE05" d="M32.398,36.221c-0.012,1.224-0.917,2.126-2.133,2.126
		c-1.252,0.002-2.178-0.947-2.151-2.204c0.023-1.193,1.061-2.193,2.247-2.165C31.526,34.006,32.412,34.981,32.398,36.221z"/>
	<path fill-rule="evenodd" clip-rule="evenodd" fill="#FEAE05" d="M74.065,24.827c0-0.923,0.015-1.714-0.003-2.506
		c-0.014-0.595,0.196-0.916,0.848-0.891c0.789,0.026,1.582,0.021,2.373,0.002c0.536-0.013,0.793,0.221,0.793,0.752
		c-0.002,1.705,0,3.41-0.005,5.116c-0.001,0.516-0.254,0.792-0.788,0.776c-0.029-0.002-0.062,0.002-0.091,0.002
		C73.383,28.009,74.155,28.72,74.065,24.827z"/>
</g>
</svg>
