<?xml version="1.0" encoding="utf-8"?>
<!-- Generator: Adobe Illustrator 16.0.3, SVG Export Plug-In . SVG Version: 6.00 Build 0)  -->
<!DOCTYPE svg PUBLIC "-//W3C//DTD SVG 1.1//EN" "http://www.w3.org/Graphics/SVG/1.1/DTD/svg11.dtd">
<svg version="1.1" id="Layer_1" xmlns="http://www.w3.org/2000/svg" xmlns:xlink="http://www.w3.org/1999/xlink" x="0px" y="0px"
	 width="92px" height="62px" viewBox="0 0 92 62" enable-background="new 0 0 92 62" xml:space="preserve">
<g>
	<path fill-rule="evenodd" clip-rule="evenodd" fill="#FA7202" d="M82.25,31.025c0,6.911,0,13.822-0.001,20.732
		c0,1.225-0.759,2.235-1.901,2.554c-0.279,0.076-0.562,0.09-0.849,0.09C75.352,54.4,71.205,54.4,67.056,54.4
		c-0.393,0-0.394,0-0.394,0.395c0,0.746,0.004,1.49-0.001,2.234c-0.009,1.418-1.146,2.563-2.564,2.564
		c-5.231,0.005-10.462,0.002-15.691,0.002c-6.902,0-13.804,0.001-20.706-0.001c-1.224,0-2.237-0.759-2.551-1.901
		c-0.059-0.209-0.091-0.422-0.091-0.64c0.002-0.779-0.009-1.56,0.006-2.338c0.004-0.254-0.075-0.321-0.323-0.32
		c-4.217,0.007-8.435,0.007-12.652,0.003c-1.013,0-1.773-0.46-2.288-1.324c-0.217-0.364-0.326-0.764-0.328-1.188
		c-0.003-0.632-0.002-1.264-0.002-1.896c0-13.224,0.001-26.447-0.003-39.671c0-1.078,0.445-1.884,1.376-2.417
		c0.4-0.229,0.837-0.307,1.298-0.307C16.315,7.6,20.49,7.599,24.664,7.599c0.393,0,0.394,0,0.394-0.394c0-0.737-0.003-1.474,0-2.209
		c0.009-1.45,1.141-2.59,2.591-2.591c5.55-0.004,11.102-0.002,16.653-0.002c6.573,0,13.145,0,19.718,0.001
		c1.163,0,2.104,0.655,2.497,1.728c0.092,0.254,0.145,0.515,0.145,0.787c-0.001,0.788,0.01,1.575-0.005,2.364
		c-0.004,0.25,0.074,0.32,0.322,0.32c4.218-0.006,8.436-0.006,12.652-0.004c1.151,0.001,2.097,0.674,2.482,1.75
		c0.116,0.322,0.139,0.656,0.139,0.996C82.25,17.238,82.25,24.132,82.25,31.025z M61.43,30.999c0-7.663,0-15.327,0-22.992
		c0-0.371,0-0.372-0.365-0.372c-10.132,0-20.264,0-30.396,0c-0.378,0-0.378,0.001-0.378,0.386c0,15.319,0,30.639,0,45.958
		c0,0.385,0,0.386,0.378,0.386c10.124,0,20.248,0,30.371,0c0.391,0,0.391-0.001,0.391-0.397C61.43,46.31,61.43,38.655,61.43,30.999z
		 M14.701,30.974c0,5.948,0,11.899,0,17.849c0,0.345,0.001,0.347,0.339,0.347c3.222,0,6.444,0,9.665,0
		c0.352,0,0.353-0.002,0.353-0.36c0-11.872,0-23.745,0-35.618c0-0.358-0.001-0.359-0.353-0.359c-3.212,0-6.425,0-9.638,0
		c-0.364,0-0.365,0.001-0.365,0.372C14.701,19.127,14.701,25.049,14.701,30.974z M66.662,30.974c0,5.948,0,11.899,0,17.849
		c0,0.345,0.001,0.347,0.339,0.347c3.223,0,6.444,0,9.665,0c0.352,0,0.353-0.002,0.353-0.36c0-11.872,0-23.745,0-35.618
		c0-0.358-0.001-0.359-0.353-0.359c-3.213,0-6.425,0-9.638,0c-0.365,0-0.366,0.001-0.366,0.372
		C66.662,19.127,66.662,25.05,66.662,30.974z"/>
	<path fill-rule="evenodd" clip-rule="evenodd" fill="#FA7202" d="M45.886,12.795c3.333,0,6.667,0,10.001,0
		c0.382,0,0.383,0,0.383,0.383c0,1.507-0.006,3.014,0.006,4.52c0.002,0.265-0.079,0.336-0.339,0.336
		c-6.718-0.007-13.438-0.007-20.156,0c-0.262,0-0.339-0.074-0.337-0.337c0.012-1.524,0.012-3.048,0-4.571
		c-0.002-0.266,0.079-0.336,0.339-0.336C39.15,12.798,42.518,12.795,45.886,12.795z"/>
	<path fill-rule="evenodd" clip-rule="evenodd" fill="#FA7202" d="M45.86,23.188c3.342,0,6.684,0,10.026,0
		c0.384,0,0.384,0.001,0.384,0.382c0,1.507-0.006,3.013,0.006,4.52c0.002,0.263-0.078,0.336-0.338,0.336
		c-6.719-0.006-13.438-0.006-20.156,0c-0.26,0-0.34-0.072-0.338-0.336c0.012-1.523,0.012-3.047,0-4.571
		c-0.002-0.264,0.077-0.337,0.337-0.336C39.141,23.189,42.5,23.188,45.86,23.188z"/>
	<path fill-rule="evenodd" clip-rule="evenodd" fill="#FA7202" d="M45.833,38.812c-3.334,0-6.667,0-10.001,0
		c-0.381-0.001-0.381-0.001-0.381-0.384c-0.001-1.507,0.005-3.013-0.006-4.52c-0.002-0.267,0.081-0.334,0.339-0.334
		c6.719,0.007,13.438,0.007,20.156,0c0.264,0,0.338,0.075,0.336,0.337c-0.012,1.523-0.012,3.047,0,4.571
		c0.002,0.268-0.082,0.335-0.339,0.335C52.568,38.809,49.2,38.812,45.833,38.812z"/>
	<path fill-rule="evenodd" clip-rule="evenodd" fill="#FA7202" d="M45.861,49.204c-3.342,0-6.685,0-10.027,0
		c-0.384,0-0.384-0.001-0.384-0.382c-0.001-1.506,0.005-3.013-0.006-4.52c-0.002-0.262,0.074-0.337,0.337-0.336
		c6.718,0.005,13.437,0.005,20.156,0c0.259,0,0.341,0.068,0.339,0.334c-0.013,1.523-0.013,3.048,0,4.571
		c0.001,0.262-0.074,0.338-0.337,0.338C52.58,49.201,49.221,49.204,45.861,49.204z"/>
</g>
</svg>
