<?xml version="1.0" encoding="utf-8"?>
<!-- Generator: Adobe Illustrator 16.0.3, SVG Export Plug-In . SVG Version: 6.00 Build 0)  -->
<!DOCTYPE svg PUBLIC "-//W3C//DTD SVG 1.1//EN" "http://www.w3.org/Graphics/SVG/1.1/DTD/svg11.dtd">
<svg version="1.1" id="Layer_1" xmlns="http://www.w3.org/2000/svg" xmlns:xlink="http://www.w3.org/1999/xlink" x="0px" y="0px"
	 width="92px" height="62px" viewBox="0 0 92 62" enable-background="new 0 0 92 62" xml:space="preserve">
<g>
	<path fill-rule="evenodd" clip-rule="evenodd" fill="#FA7202" d="M13.995,18.606c0.334-1.177,0.812-2.274,1.697-3.154
		c1.227-1.219,2.714-1.857,4.434-1.861c6.249-0.02,12.499-0.009,18.749-0.009c0.125,0,0.25-0.003,0.374,0.015
		c0.607,0.088,1.044,0.582,1.026,1.149c-0.02,0.585-0.461,1.013-1.122,1.02c-1.604,0.015-3.208,0.008-4.812,0.008
		c-4.667,0-9.333-0.007-13.998,0.003c-2.093,0.003-3.608,1.13-4.103,2.993c-0.108,0.41-0.099,0.826-0.099,1.241
		c-0.003,11.229,0.026,22.457-0.024,33.685c-0.013,2.554,1.869,4.268,4.265,4.264c17.125-0.022,34.248-0.009,51.371-0.014
		c2.429-0.001,4.105-1.661,4.106-4.077c0.008-11.27-0.026-22.539,0.028-33.81c0.011-2.396-1.68-4.316-4.369-4.3
		c-6.27,0.04-12.54,0.014-18.812,0.012c-0.824,0-1.274-0.298-1.361-0.892c-0.114-0.77,0.387-1.289,1.285-1.294
		c2.292-0.011,4.583-0.008,6.874-0.008c3.812,0,7.628,0.098,11.436-0.022c3.878-0.12,6.365,2.023,7.066,5.052
		c0,12.168,0,24.337,0,36.505c-0.686,2.995-3.18,5.114-7.055,5.064c-8.578-0.11-17.156-0.03-25.733-0.03
		c-8.267,0-16.531-0.003-24.797,0.003c-1.507,0-2.88-0.379-4.086-1.297c-1.25-0.952-1.944-2.251-2.339-3.74
		C13.995,42.943,13.995,30.774,13.995,18.606z"/>
	<path fill-rule="evenodd" clip-rule="evenodd" fill="#FA7202" d="M34.417,53.519c-4.241-0.102-8.648-0.286-12.98-1.256
		c-0.915-0.206-1.806-0.495-2.684-0.82c-0.323-0.119-0.528-0.297-0.496-0.688c0.161-1.979,0.698-3.84,1.644-5.59
		c0.874-1.616,2.19-2.673,3.892-3.338c2.035-0.797,4.055-1.64,6-2.648c0.775-0.402,0.707-0.393,0.284-1.113
		c-0.912-1.549-1.76-3.135-2.676-4.684c-0.452-0.764-0.512-1.664-0.435-2.553c0.017-0.185,0.017-0.42,0.125-0.538
		c0.875-0.967,0.537-2.155,0.601-3.258c0.046-0.842,0.141-1.658,0.475-2.433c0.754-1.746,2.073-2.84,3.901-3.308
		c2.076-0.531,4.136-0.508,6.119,0.374c2.129,0.947,3.151,2.688,3.346,4.957c0.046,0.537-0.014,1.085,0.02,1.625
		c0.039,0.662-0.011,1.305,0.509,1.912c0.453,0.531,0.27,1.321,0.156,1.998c-0.193,1.16-0.736,2.163-1.515,3.034
		c-0.256,0.287-0.439,0.595-0.55,0.964c-0.242,0.808-0.639,1.543-1.184,2.182c-0.275,0.326-0.202,0.464,0.13,0.65
		c1.292,0.726,2.659,1.292,4.014,1.883c0.859,0.375,1.717,0.756,2.592,1.085c1.596,0.6,2.767,1.653,3.58,3.144
		c0.929,1.705,1.51,3.503,1.656,5.45c0.043,0.595-0.187,0.802-0.681,0.983c-1.909,0.699-3.892,1.071-5.893,1.343
		C41.124,53.316,37.86,53.47,34.417,53.519z"/>
	<path fill-rule="evenodd" clip-rule="evenodd" fill="#FA7202" d="M46.044,1.824c0.667,0.001,1.333,0,2,0.001
		c1.749,0,2.911,1.134,2.861,2.893c-0.046,1.579-0.181,3.156-0.288,4.732c-0.148,2.138-0.301,4.274-0.463,6.41
		c-0.061,0.808-0.083,1.627-0.246,2.416c-0.316,1.547-1.257,2.253-2.827,2.248c-0.812-0.003-1.625,0.003-2.437-0.001
		c-1.718-0.009-2.821-1.018-2.919-2.735c-0.15-2.637-0.262-5.276-0.392-7.914c-0.082-1.663-0.196-3.323-0.239-4.986
		c-0.052-1.973,1.061-3.073,3.015-3.064C44.752,1.825,45.399,1.823,46.044,1.824z"/>
	<path fill-rule="evenodd" clip-rule="evenodd" fill="#FA7202" d="M62.75,25.197c2.747,0,5.493,0.003,8.239-0.002
		c0.516-0.001,0.951,0.135,1.192,0.629c0.368,0.754-0.172,1.547-1.1,1.559c-1.809,0.021-3.621,0.011-5.431,0.011
		c-3.599,0-7.198-0.002-10.797-0.004c-0.146,0-0.292,0.004-0.437-0.005c-0.717-0.044-1.189-0.487-1.186-1.112
		c0.003-0.603,0.505-1.067,1.218-1.069C57.216,25.192,59.983,25.199,62.75,25.197z"/>
	<path fill-rule="evenodd" clip-rule="evenodd" fill="#FA7202" d="M62.69,36.153c-2.687,0-5.375,0.001-8.063,0
		c-0.887,0-1.396-0.392-1.399-1.069c-0.003-0.666,0.539-1.117,1.382-1.117c5.437-0.004,10.875-0.005,16.313,0
		c0.887,0.002,1.451,0.542,1.353,1.258c-0.083,0.601-0.512,0.925-1.273,0.927c-2.771,0.003-5.542,0-8.313,0
		C62.69,36.152,62.69,36.153,62.69,36.153z"/>
</g>
</svg>
