<?xml version="1.0" encoding="utf-8"?>
<!-- Generator: Adobe Illustrator 16.0.3, SVG Export Plug-In . SVG Version: 6.00 Build 0)  -->
<!DOCTYPE svg PUBLIC "-//W3C//DTD SVG 1.1//EN" "http://www.w3.org/Graphics/SVG/1.1/DTD/svg11.dtd">
<svg version="1.1" id="Layer_1" xmlns="http://www.w3.org/2000/svg" xmlns:xlink="http://www.w3.org/1999/xlink" x="0px" y="0px"
	 width="92px" height="62px" viewBox="0 0 92 62" enable-background="new 0 0 92 62" xml:space="preserve">
<g>
	<path fill-rule="evenodd" clip-rule="evenodd" fill="#7609B1" d="M65.105,34.439c-2.694,0.514-3.252-0.926-2.63-3.422
		c0.251-1.007,0.378-2.046,0.551-3.073c0.729-4.344,4.619-5.988,8.313-3.512c2.663,1.785,1.553,7.358-1.838,9.208
		C68.189,34.354,66.765,34.5,65.105,34.439z"/>
	<path fill-rule="evenodd" clip-rule="evenodd" fill="#7609B1" d="M44.805,54.139c-9.747-0.474-20.447-1.961-30.358-7.077
		c-3.259-1.682-6.181-3.832-8.636-6.574c-5.089-5.686-5.075-13.033,0.007-18.727c3.698-4.143,8.332-6.93,13.455-8.742
		c19.567-6.92,38.952-6.694,57.99,2.046c3.318,1.523,6.218,3.744,8.703,6.475c5.379,5.914,5.384,13.268-0.016,19.189
		c-4.19,4.595-9.501,7.415-15.252,9.323C62.692,52.708,54.429,54.025,44.805,54.139z M66.9,20.884c-1.345,0-2.695,0.08-4.033-0.019
		c-1.879-0.139-2.87,0.635-3.219,2.529c-1.083,5.86-2.278,11.7-3.343,17.563c-0.195,1.078-1.016,2.66,1.017,2.987
		c1.61,0.259,2.983-0.174,3.115-2.12c0.226-3.373,2.071-4.449,5.184-4.119c1.219,0.129,2.49,0.002,3.711-0.182
		c5.011-0.753,8.394-5.484,7.953-11.038c-0.309-3.907-2.833-5.567-8.523-5.605C68.142,20.876,67.521,20.88,66.9,20.884z
		 M26.033,20.88c0,0.005,0,0.01,0,0.016c-1.445,0-2.892,0.03-4.336-0.008c-1.601-0.042-2.434,0.647-2.737,2.296
		c-1.112,6.058-2.326,12.096-3.477,18.146c-0.229,1.203-0.223,2.388,1.377,2.604c1.216,0.165,2.554-0.02,2.61-1.486
		c0.186-4.822,3.287-5.039,6.854-4.753c0.815,0.065,1.656-0.039,2.468-0.168c4.584-0.736,8.194-5.586,7.886-10.554
		c-0.257-4.129-2.929-6.05-8.477-6.091C27.479,20.876,26.756,20.88,26.033,20.88z M46.548,23.872
		c4.371,0.027,5.273,1.111,4.551,5.173c-0.33,1.855-0.749,3.695-1.038,5.555c-0.175,1.12-1.104,2.615,0.905,3.021
		c1.839,0.373,2.954-0.422,3.296-2.362c0.474-2.678,1.062-5.336,1.558-8.01c0.75-4.043-0.666-5.926-4.73-6.301
		c-0.924-0.085-1.87-0.145-2.79-0.051c-2.946,0.3-4.37-0.62-3.419-3.878c0.268-0.92,0.634-2.237-0.968-2.46
		c-1.371-0.19-2.768-0.211-3.126,1.667c-0.157,0.821-0.376,1.632-0.531,2.453c-1.007,5.346-2.036,10.688-2.978,16.046
		c-0.189,1.072-1.134,2.634,0.97,2.951c1.626,0.245,2.768-0.214,3.08-2.164c0.46-2.89,1.232-5.73,1.698-8.619
		C43.399,24.583,44.546,23.557,46.548,23.872z"/>
	<path fill-rule="evenodd" clip-rule="evenodd" fill="#7609B1" d="M24.375,34.729c-2.507,0.378-3.324-0.818-2.583-3.433
		c0.281-0.99,0.29-2.055,0.472-3.078c0.768-4.306,4.253-5.889,8.043-3.667c1.421,0.833,1.905,2.149,1.737,3.707
		c-0.268,2.484-1.137,4.646-3.513,5.845C27.297,34.725,25.958,34.763,24.375,34.729z"/>
</g>
</svg>
