<?xml version="1.0" encoding="utf-8"?>
<!-- Generator: Adobe Illustrator 16.0.3, SVG Export Plug-In . SVG Version: 6.00 Build 0)  -->
<!DOCTYPE svg PUBLIC "-//W3C//DTD SVG 1.1//EN" "http://www.w3.org/Graphics/SVG/1.1/DTD/svg11.dtd">
<svg version="1.1" id="Layer_1" xmlns="http://www.w3.org/2000/svg" xmlns:xlink="http://www.w3.org/1999/xlink" x="0px" y="0px"
	 width="92px" height="62px" viewBox="0 0 92 62" enable-background="new 0 0 92 62" xml:space="preserve">
<path fill-rule="evenodd" clip-rule="evenodd" fill="#FA7202" d="M21.313,31.382c0-4.45,0.04-8.899-0.025-13.35
	c-0.019-1.258,0.363-2.035,1.471-2.69c7.416-4.394,14.807-8.827,22.174-13.301c1.082-0.658,1.908-0.727,3.029-0.043
	c7.41,4.511,14.854,8.965,22.314,13.394c1.045,0.619,1.399,1.374,1.395,2.564c-0.04,8.954-0.044,17.907,0.003,26.861
	c0.007,1.263-0.371,2.04-1.474,2.692c-7.416,4.396-14.813,8.82-22.171,13.308c-1.177,0.717-2.043,0.639-3.171-0.048
	c-7.318-4.448-14.662-8.854-22.031-13.216c-1.155-0.685-1.563-1.503-1.542-2.824C21.358,40.282,21.313,35.831,21.313,31.382z
	 M48.909,43.706c0,3.06-0.006,6.118,0.002,9.179c0.004,1.923,0.052,1.956,1.636,1.011c5.109-3.054,10.201-6.135,15.321-9.167
	c0.917-0.544,1.317-1.202,1.312-2.282c-0.037-6.341-0.041-12.685,0-19.026c0.01-1.46-0.461-1.448-1.528-0.799
	c-5.128,3.13-10.267,6.243-15.436,9.302c-1.002,0.596-1.345,1.314-1.325,2.436C48.945,37.474,48.91,40.589,48.909,43.706z
	 M44.396,43.699c0-3.224-0.016-6.45,0.01-9.674c0.007-0.848-0.189-1.474-0.989-1.929c-2.126-1.208-4.223-2.469-6.313-3.737
	c-1.019-0.619-1.26-0.173-1.246,0.795c0.016,1.111,0.014,2.223-0.013,3.335c-0.01,0.417,0.08,0.947-0.597,0.983
	c-1.249,0.07-3.758-2.247-3.519-3.529c0.711-3.812-0.985-5.98-4.354-7.41c-1.313-0.557-1.607-0.479-1.598,0.944
	c0.04,6.283,0.037,12.564-0.001,18.847c-0.007,1.128,0.36,1.848,1.348,2.429c5.266,3.108,10.497,6.274,15.746,9.41
	c1.504,0.9,1.521,0.888,1.525-0.958C44.402,50.036,44.396,46.867,44.396,43.699z M65.06,17.642
	c-2.575-1.537-4.896-2.929-7.223-4.307c-0.547-0.324-1.063-0.137-1.568,0.156c-5.567,3.238-11.131,6.481-16.711,9.694
	c-0.941,0.543-0.733,0.896,0.044,1.347c2.064,1.2,4.134,2.391,6.161,3.651c0.819,0.509,1.426,0.243,2.132-0.187
	c4.031-2.453,8.079-4.88,12.12-7.315C61.615,19.716,63.215,18.753,65.06,17.642z M27.963,17.604c2.074,1.218,3.92,2.306,5.772,3.386
	c0.444,0.259,0.857,0.092,1.255-0.137c5.686-3.249,11.365-6.509,17.063-9.737c0.963-0.544,0.724-0.871-0.05-1.318
	c-1.49-0.859-2.984-1.719-4.417-2.668c-0.823-0.543-1.468-0.466-2.27,0.036c-2.304,1.441-4.655,2.813-6.986,4.212
	C34.959,13.4,31.59,15.425,27.963,17.604z"/>
</svg>
