<?xml version="1.0" encoding="utf-8"?>
<!-- Generator: Adobe Illustrator 16.0.3, SVG Export Plug-In . SVG Version: 6.00 Build 0)  -->
<!DOCTYPE svg PUBLIC "-//W3C//DTD SVG 1.1//EN" "http://www.w3.org/Graphics/SVG/1.1/DTD/svg11.dtd">
<svg version="1.1" id="Layer_1" xmlns="http://www.w3.org/2000/svg" xmlns:xlink="http://www.w3.org/1999/xlink" x="0px" y="0px"
	 width="92px" height="62px" viewBox="0 0 92 62" enable-background="new 0 0 92 62" xml:space="preserve">
<g>
	<path fill-rule="evenodd" clip-rule="evenodd" fill="#7609B1" d="M1.651,46.635c0.128-0.47,0.316-0.905,0.653-1.271
		c0.692-0.754,1.552-0.979,2.513-0.744c0.97,0.238,1.607,0.887,1.868,1.848c0.283,1.042-0.012,1.945-0.822,2.655
		c-0.774,0.681-1.68,0.815-2.628,0.456c-0.737-0.279-1.216-0.849-1.48-1.593c-0.037-0.105-0.069-0.213-0.104-0.318
		C1.651,47.323,1.651,46.978,1.651,46.635z"/>
	<path fill-rule="evenodd" clip-rule="evenodd" fill="#7609B1" d="M16.097,21.056c-0.048,0.243,0.024,0.453,0.038,0.666
		c0.13,1.978,0.098,3.957,0.098,5.938c0.002,7.009,0.001,14.017,0.001,21.026c0,0.094-0.007,0.19,0.001,0.284
		c0.017,0.205-0.079,0.267-0.276,0.266c-0.818-0.007-1.635-0.002-2.454-0.002c-0.31,0-0.62-0.005-0.929,0.002
		c-0.172,0.003-0.26-0.057-0.247-0.24c0.005-0.078,0-0.155,0-0.233c0-10.65,0-21.302,0-31.952c0-0.078,0.004-0.154,0-0.232
		c-0.01-0.168,0.072-0.229,0.232-0.229c1.541,0.002,3.083,0.002,4.625,0c0.153,0,0.228,0.088,0.302,0.202
		c1.782,2.795,3.565,5.589,5.35,8.383c2.421,3.794,4.843,7.59,7.265,11.386c1.522,2.389,3.04,4.78,4.557,7.171
		c0.156,0.247,0.295,0.503,0.48,0.747c-0.028-0.334-0.059-0.667-0.084-1.001c-0.032-0.454-0.077-0.909-0.086-1.364
		c-0.023-1.326-0.042-2.651-0.043-3.977c-0.004-7.018-0.001-14.034-0.001-21.052c0-0.494,0-0.495,0.493-0.495
		c0.999,0,1.998,0,2.997,0.001c0.4,0,0.4,0.001,0.4,0.395c0,8.351,0,16.703,0,25.056c0,2.359,0.001,4.717,0,7.078
		c0,0.353-0.001,0.355-0.359,0.355c-1.335,0-2.669-0.007-4.005,0.007c-0.258,0.001-0.402-0.087-0.538-0.299
		c-3.902-6.038-7.81-12.071-11.717-18.104c-1.666-2.572-3.332-5.145-4.995-7.719c-0.37-0.573-0.678-1.179-0.941-1.808
		C16.223,21.227,16.217,21.124,16.097,21.056z"/>
	<path fill-rule="evenodd" clip-rule="evenodd" fill="#7609B1" d="M46.021,32.791c0-5.313,0-10.625,0-15.936
		c0-0.095,0.004-0.189,0-0.284c-0.003-0.148,0.062-0.226,0.215-0.221c0.07,0.001,0.138-0.002,0.207-0.002c5.286,0,10.573,0,15.859,0
		c0.425,0,0.425,0.001,0.425,0.425c0,0.904,0.002,1.808,0,2.712c0,0.401,0,0.401-0.393,0.401c-4.004,0-8.008,0-12.011,0
		c-0.401,0-0.401,0.002-0.401,0.409c0,3.358,0,6.716,0,10.073c0,0.386,0,0.386,0.396,0.386c3.692,0,7.387,0,11.081,0
		c0.395,0,0.395,0.001,0.395,0.403c0,0.921,0,1.842,0,2.764c0,0.373-0.002,0.374-0.374,0.374c-3.701,0-7.402,0-11.105,0
		c-0.393,0-0.393,0-0.393,0.394c0,3.538,0,7.076,0,10.614c0,0.387,0,0.388,0.398,0.388c4.245,0,8.489,0,12.734,0
		c0.434,0,0.436,0,0.436,0.446c0,0.904,0.002,1.809,0,2.712c0,0.379-0.002,0.381-0.367,0.381c-5.576,0-11.155,0-16.735,0
		c-0.365,0-0.367-0.002-0.367-0.377C46.021,43.5,46.021,38.145,46.021,32.791z"/>
	<path fill-rule="evenodd" clip-rule="evenodd" fill="#7609B1" d="M76.5,34.546c0-4.76,0-9.521,0-14.281
		c0-0.375,0-0.377-0.387-0.377c-2.898,0-5.8,0-8.701,0c-0.371,0-0.373,0-0.373-0.369c0-0.93,0-1.858,0-2.79
		c0-0.379,0.002-0.38,0.391-0.38c5.989-0.001,11.981-0.001,17.973-0.001c1.37,0,2.737,0,4.106,0.001
		c0.342,0,0.346,0.004,0.346,0.346c0.002,0.948,0.002,1.894,0,2.842c0,0.35-0.002,0.351-0.363,0.351c-2.875,0-5.751,0-8.626,0.002
		c-0.522,0-0.462-0.052-0.462,0.476c0,9.469,0,18.938,0,28.408c0,0.459,0,0.459-0.464,0.459c-1.016,0-2.03,0-3.048,0
		c-0.392,0-0.392-0.002-0.392-0.405C76.5,44.067,76.5,39.307,76.5,34.546z"/>
</g>
</svg>
