<?xml version="1.0" encoding="utf-8"?>
<!-- Generator: Adobe Illustrator 16.0.3, SVG Export Plug-In . SVG Version: 6.00 Build 0)  -->
<!DOCTYPE svg PUBLIC "-//W3C//DTD SVG 1.1//EN" "http://www.w3.org/Graphics/SVG/1.1/DTD/svg11.dtd">
<svg version="1.1" id="Layer_1" xmlns="http://www.w3.org/2000/svg" xmlns:xlink="http://www.w3.org/1999/xlink" x="0px" y="0px"
	 width="92px" height="62px" viewBox="0 0 92 62" enable-background="new 0 0 92 62" xml:space="preserve">
<g>
	<path fill-rule="evenodd" clip-rule="evenodd" fill="none" d="M54.552,54.244c-5.336,0-10.55,0-15.791,0
		c0.101-0.301,0.342-0.419,0.528-0.576c2.284-1.941,4.578-3.871,6.865-5.812c0.275-0.234,0.493-0.403,0.856-0.094
		c2.432,2.076,4.875,4.134,7.315,6.199C54.384,54.011,54.422,54.078,54.552,54.244z"/>
	<path fill-rule="evenodd" clip-rule="evenodd" fill="#FA7202" d="M46.879,13.61c1.871-0.005,3.396,1.51,3.402,3.378
		c0.003,1.836-1.576,3.406-3.407,3.394c-1.82-0.016-3.36-1.551-3.374-3.366C43.487,15.16,45.019,13.616,46.879,13.61z
		 M46.873,14.819c-1.251,0.008-2.169,0.93-2.162,2.173c0.006,1.232,0.949,2.183,2.169,2.189c1.245,0.004,2.198-0.963,2.19-2.225
		C49.063,15.718,48.132,14.812,46.873,14.819z"/>
	<path fill-rule="evenodd" clip-rule="evenodd" fill="none" d="M46.873,14.819c1.259-0.008,2.19,0.898,2.197,2.138
		c0.008,1.262-0.945,2.229-2.19,2.225c-1.22-0.007-2.163-0.957-2.169-2.189C44.704,15.749,45.622,14.827,46.873,14.819z"/>
	<path fill-rule="evenodd" clip-rule="evenodd" fill="#FA7202" d="M74.932,4.51c0.473-0.001,0.947-0.004,1.421-0.007
		c0-0.868,0-1.738,0-2.607c-0.272-0.018-0.551-0.05-0.824-0.05c-19.685-0.003-39.371-0.003-59.057,0
		c-0.273,0-0.549,0.032-0.824,0.05c0,0.869,0,1.739,0,2.607c0.632,0.003,1.265,0.013,1.896,0.009
		c0.391-0.003,0.59,0.166,0.577,0.567c-0.006,0.196,0.003,0.396,0.003,0.592c0,12.657,0,25.314,0,37.97
		c0,0.198-0.009,0.396-0.003,0.593c0.014,0.405-0.186,0.565-0.58,0.564c-0.629-0.007-1.262,0.01-1.894,0.018
		c0,0.869,0,1.738,0,2.608c0.316,0.015,0.629,0.039,0.945,0.039c7.683,0.002,15.37,0,23.054,0.006c0.226,0,0.467-0.072,0.748,0.112
		c-0.618,0.526-1.21,1.038-1.807,1.542c-3.047,2.577-6.086,5.163-9.15,7.718c-0.469,0.392-0.494,0.65-0.086,1.084
		c0.583,0.616,1.12,1.277,1.648,1.941c0.288,0.359,0.518,0.384,0.87,0.081c1.452-1.25,2.929-2.472,4.379-3.726
		c0.414-0.357,0.844-0.514,1.394-0.512c6.005,0.014,12.01,0.012,18.015,0c0.527,0,0.938,0.148,1.338,0.495
		c1.432,1.242,2.899,2.442,4.329,3.69c0.415,0.362,0.667,0.333,0.994-0.093c0.494-0.642,1.041-1.239,1.561-1.861
		c0.501-0.601,0.504-0.607-0.098-1.116c-3.195-2.706-6.395-5.407-9.586-8.121c-0.427-0.362-0.908-0.672-1.262-1.144
		c0.255-0.159,0.497-0.092,0.726-0.092c7.248-0.006,14.499-0.004,21.748-0.006c0.316,0,0.631-0.024,0.945-0.039
		c0-0.87,0-1.739,0-2.608c-0.631-0.008-1.261-0.024-1.895-0.018c-0.396,0.001-0.591-0.165-0.574-0.566
		c0.006-0.157-0.003-0.315-0.003-0.475c0-12.732,0-25.468,0-38.202C73.881,4.512,73.884,4.512,74.932,4.51z M39.539,16.205
		c0.013-0.238,0.23-0.299,0.436-0.325c0.449-0.056,0.904-0.083,1.352-0.162c0.717-0.127,1.139-1.298,0.687-1.865
		c-0.26-0.324-0.521-0.646-0.791-0.958c-0.224-0.255-0.233-0.467,0.024-0.712c1.484-1.414,0.926-1.379,2.409-0.159
		c0.536,0.442,0.95,0.358,1.497,0.149c0.521-0.202,0.466-0.616,0.52-1.02c0.225-1.771-0.146-1.521,1.781-1.539
		c0.369-0.002,0.534,0.173,0.56,0.534c0.034,0.452,0.077,0.905,0.144,1.354c0.106,0.725,1.152,1.14,1.733,0.692
		c0.346-0.266,0.692-0.531,1.005-0.827c0.342-0.32,0.585-0.25,0.896,0.061c1.088,1.077,1.096,1.065,0.14,2.244
		c-0.242,0.298-0.553,0.554-0.312,1.036c0.267,0.533,0.427,1.05,1.208,1.083c1.714,0.073,1.415,0.045,1.45,1.675
		c0.01,0.456-0.205,0.646-0.644,0.651c-0.196,0.001-0.397,0.067-0.588,0.045c-0.959-0.111-1.232,0.559-1.487,1.266
		c-0.069,0.191-0.04,0.347,0.08,0.497c0.124,0.154,0.26,0.302,0.367,0.465c0.238,0.372,0.839,0.649,0.685,1.095
		c-0.18,0.521-0.729,0.86-1.158,1.238c-0.209,0.181-0.41,0.042-0.584-0.099c-0.338-0.271-0.681-0.54-1.005-0.828
		c-0.283-0.254-0.555-0.254-0.921-0.15c-0.664,0.186-0.866,0.582-0.923,1.237c-0.151,1.771,0.102,1.482-1.801,1.498
		c-0.341,0.001-0.497-0.175-0.517-0.51c-0.022-0.334-0.118-0.668-0.101-1c0.033-0.679-0.252-1.04-0.91-1.229
		c-0.37-0.105-0.633-0.098-0.914,0.154c-0.309,0.278-0.642,0.526-0.964,0.788c-0.122,0.1-0.237,0.21-0.42,0.231
		c-0.27-0.032-0.419-0.26-0.599-0.437c-0.95-0.937-0.95-0.938-0.112-1.971c0.611-0.749,0.619-1.155,0.056-1.927
		c-0.117-0.16-0.272-0.217-0.452-0.238c-0.218-0.025-0.436-0.034-0.649-0.084c-0.371-0.089-0.896,0.125-1.098-0.266
		C39.355,17.38,39.51,16.772,39.539,16.205z M50.979,27.087c-1.274,2.843-2.558,5.68-3.84,8.521c-0.039,0.085-0.1,0.162-0.233,0.376
		c-0.396-0.866-0.743-1.613-1.082-2.362c-0.981-2.177-1.961-4.351-2.938-6.528c-0.264-0.591-0.241-0.623,0.403-0.623
		c2.425-0.004,4.852-0.006,7.276,0C51.153,26.471,51.215,26.562,50.979,27.087z M33.163,37.599c0,0,0-2.002,0-7.781
		s6.298-5.409,6.298-5.409l6.299,13.19H33.163z M54.326,53.962c0.058,0.049,0.096,0.116,0.226,0.282c-5.336,0-10.55,0-15.791,0
		c0.101-0.301,0.342-0.419,0.528-0.576c2.284-1.941,4.578-3.871,6.865-5.812c0.275-0.234,0.493-0.403,0.856-0.094
		C49.442,49.839,51.886,51.896,54.326,53.962z M60.851,37.599H48.255l6.297-13.19c0,0,6.299-0.37,6.299,5.409
		S60.851,37.599,60.851,37.599z"/>
</g>
</svg>
