<?xml version="1.0" encoding="utf-8"?>
<!-- Generator: Adobe Illustrator 16.0.3, SVG Export Plug-In . SVG Version: 6.00 Build 0)  -->
<!DOCTYPE svg PUBLIC "-//W3C//DTD SVG 1.1//EN" "http://www.w3.org/Graphics/SVG/1.1/DTD/svg11.dtd">
<svg version="1.1" id="Layer_1" xmlns="http://www.w3.org/2000/svg" xmlns:xlink="http://www.w3.org/1999/xlink" x="0px" y="0px"
	 width="92px" height="62px" viewBox="0 0 92 62" enable-background="new 0 0 92 62" xml:space="preserve">
<g>
	<path fill-rule="evenodd" clip-rule="evenodd" fill="#FEAE05" d="M46.027,1.536c11.612,0,23.225,0,34.836,0
		c2.289,0,3.034,0.75,3.036,3.072c0.002,14.719,0.002,29.439-0.002,44.159c0,2.289-0.77,3.049-3.084,3.05
		c-22.994,0.001-45.99,0-68.985,0.004c-0.59,0-1.176-0.016-1.746-0.199c-1.268-0.403-1.944-1.273-1.97-2.61
		c-0.022-1.242-0.007-2.485-0.007-3.729c0-13.442,0-26.887,0.001-40.33c0-0.426-0.016-0.855,0.039-1.274
		c0.176-1.381,0.964-2.103,2.36-2.132c1.372-0.029,2.746-0.01,4.12-0.01C25.093,1.536,35.56,1.536,46.027,1.536z M46.05,5.297
		c-10.601,0-21.202-0.001-31.804,0c-2.033,0-2.219,0.183-2.219,2.153c0,12.86,0,25.72,0,38.58c0,1.72,0.275,2.021,1.973,2.021
		c21.334,0.005,42.669,0.005,64.005,0c1.699,0,1.971-0.298,1.971-2.021c0.001-12.893,0.001-25.785,0.001-38.678
		c0-0.262-0.007-0.523-0.007-0.784c-0.002-0.759-0.426-1.144-1.132-1.235c-0.388-0.049-0.784-0.035-1.176-0.035
		C67.125,5.297,56.588,5.297,46.05,5.297z"/>
	<path fill-rule="evenodd" clip-rule="evenodd" fill="#FEAE05" d="M46.113,60.465c-3.922,0-7.842-0.005-11.763,0.005
		c-0.991,0.003-1.696-0.416-2.092-1.32c-0.37-0.84-0.176-1.617,0.408-2.275c0.565-0.639,1.354-0.732,2.157-0.732
		c3.889,0.002,7.777,0,11.663,0c3.595,0,7.189-0.002,10.783,0.003c0.391,0,0.79-0.001,1.17,0.073
		c1.117,0.217,1.911,1.196,1.839,2.212c-0.086,1.203-0.943,2.024-2.209,2.03C54.084,60.476,50.099,60.465,46.113,60.465z"/>
	<path fill-rule="evenodd" clip-rule="evenodd" fill="#FEAE05" d="M45.994,7.41c5.461-0.001,10.922-0.003,16.38,0.001
		c1.314,0,1.328,0.014,1.33,1.301c0.005,1.994-0.021,3.989,0.012,5.982c0.011,0.76-0.265,1.035-1.03,1.034
		c-11.116-0.015-22.232-0.017-33.349,0.003c-0.842,0.002-1.06-0.35-1.046-1.119c0.032-1.993,0.049-3.989-0.008-5.981
		c-0.025-0.938,0.289-1.245,1.232-1.239C35.007,7.428,40.502,7.41,45.994,7.41z"/>
	<path fill-rule="evenodd" clip-rule="evenodd" fill="#FEAE05" d="M51.924,19.218c3.468-0.002,6.935-0.003,10.402,0
		c1.317,0.002,1.347,0.028,1.35,1.291c0.005,3.107-0.022,6.215,0.017,9.321c0.012,0.895-0.289,1.195-1.188,1.191
		c-7.064-0.026-14.129-0.025-21.193-0.001c-0.858,0.002-1.234-0.223-1.221-1.158c0.045-3.172,0.036-6.345,0.002-9.517
		c-0.009-0.85,0.283-1.15,1.137-1.143C44.795,19.235,48.361,19.218,51.924,19.218z"/>
	<path fill-rule="evenodd" clip-rule="evenodd" fill="#FEAE05" d="M51.843,46.321c-3.5,0-6.999-0.023-10.499,0.017
		c-0.924,0.011-1.268-0.271-1.255-1.227c0.047-3.14,0.044-6.28,0.003-9.419c-0.014-0.916,0.325-1.18,1.204-1.176
		c7.064,0.025,14.129,0.025,21.193,0c0.879-0.004,1.216,0.262,1.204,1.176c-0.041,3.173-0.038,6.346-0.001,9.518
		c0.009,0.867-0.318,1.131-1.154,1.125C58.973,46.303,55.408,46.32,51.843,46.321z"/>
	<path fill-rule="evenodd" clip-rule="evenodd" fill="#FEAE05" d="M36.583,32.814c0,4.088-0.021,8.177,0.016,12.265
		c0.009,0.918-0.258,1.287-1.222,1.26c-1.993-0.059-3.991-0.044-5.985-0.006c-0.817,0.016-1.076-0.305-1.075-1.098
		c0.019-8.309,0.017-16.616,0.001-24.925c-0.002-0.786,0.242-1.12,1.067-1.105c2.027,0.038,4.057,0.042,6.083-0.003
		c0.865-0.02,1.134,0.313,1.128,1.151C36.568,24.507,36.583,28.661,36.583,32.814z"/>
</g>
</svg>
