<?xml version="1.0" encoding="utf-8"?>
<!-- Generator: Adobe Illustrator 16.0.3, SVG Export Plug-In . SVG Version: 6.00 Build 0)  -->
<!DOCTYPE svg PUBLIC "-//W3C//DTD SVG 1.1//EN" "http://www.w3.org/Graphics/SVG/1.1/DTD/svg11.dtd">
<svg version="1.1" id="Layer_1" xmlns="http://www.w3.org/2000/svg" xmlns:xlink="http://www.w3.org/1999/xlink" x="0px" y="0px"
	 width="92px" height="62px" viewBox="0 0 92 62" enable-background="new 0 0 92 62" xml:space="preserve">
<g>
	<path fill-rule="evenodd" clip-rule="evenodd" fill="#E91A61" d="M55.327,1.684c0.009,0.33,0.023,0.66,0.023,0.991
		c0.003,2.166-0.006,4.332,0.008,6.496c0.002,0.361-0.104,0.501-0.476,0.487c-0.611-0.024-1.224-0.019-1.834-0.002
		c-0.316,0.007-0.425-0.114-0.421-0.426c0.014-0.968,0.005-1.937,0.005-2.904c0-0.122,0-0.244,0-0.366
		c-0.023-0.006-0.046-0.013-0.068-0.02c-0.462,0.711-0.922,1.424-1.384,2.133C50.838,8.6,50.836,8.6,50.5,8.082
		c-0.452-0.693-0.902-1.385-1.373-2.11c-0.108,0.16-0.071,0.301-0.073,0.431c-0.003,0.929-0.01,1.859,0.003,2.789
		c0.004,0.34-0.115,0.479-0.469,0.465c-0.625-0.021-1.249-0.01-1.874-0.005c-0.228,0.002-0.357-0.072-0.356-0.328
		c0.011-2.546,0.017-5.094,0.023-7.64c0.942,0,1.886,0,2.829,0c0.482,0.791,0.971,1.578,1.444,2.377
		c0.153,0.258,0.247,0.266,0.402,0.003c0.472-0.799,0.959-1.588,1.441-2.38C53.442,1.684,54.384,1.684,55.327,1.684z"/>
	<path fill-rule="evenodd" clip-rule="evenodd" fill="#E91A61" d="M36.823,1.684c0.005,2.535,0.007,5.069,0.015,7.604
		c0.001,0.256-0.098,0.371-0.361,0.368c-0.675-0.009-1.35-0.011-2.024,0c-0.292,0.005-0.379-0.137-0.378-0.396
		c0.004-0.625-0.01-1.249,0.004-1.873c0.005-0.289-0.085-0.418-0.394-0.407c-0.51,0.02-1.02,0.017-1.528,0.001
		c-0.281-0.009-0.389,0.096-0.384,0.376c0.013,0.624-0.005,1.249,0.007,1.874c0.006,0.303-0.097,0.437-0.42,0.428
		c-0.649-0.019-1.3-0.015-1.948-0.002c-0.301,0.006-0.403-0.114-0.402-0.407c0.01-2.521,0.011-5.044,0.016-7.565
		c0.917,0,1.835,0,2.752,0c0,0.711,0.012,1.423-0.006,2.134c-0.008,0.321,0.083,0.465,0.43,0.448c0.482-0.025,0.966-0.025,1.448,0
		c0.346,0.017,0.438-0.127,0.431-0.448c-0.018-0.711-0.007-1.423-0.009-2.134C34.988,1.684,35.905,1.684,36.823,1.684z"/>
	<path fill-rule="evenodd" clip-rule="evenodd" fill="#E91A61" d="M45.31,1.684c-0.003,0.739-0.014,1.478-0.003,2.217
		c0.006,0.336-0.106,0.488-0.463,0.472c-0.497-0.022-0.996,0.006-1.491-0.009c-0.298-0.01-0.401,0.099-0.399,0.398
		c0.012,1.466-0.007,2.932,0.013,4.397c0.005,0.388-0.122,0.518-0.506,0.5c-0.598-0.026-1.198-0.022-1.797-0.001
		c-0.341,0.012-0.437-0.121-0.433-0.448c0.013-1.465-0.006-2.931,0.013-4.396c0.006-0.362-0.119-0.465-0.462-0.45
		c-0.495,0.021-0.993-0.004-1.49,0.007c-0.284,0.007-0.423-0.086-0.416-0.394c0.017-0.765,0.014-1.529,0.018-2.293
		C40.366,1.684,42.838,1.684,45.31,1.684z"/>
	<path fill-rule="evenodd" clip-rule="evenodd" fill="#E91A61" d="M59.303,1.684c0.007,1.565,0.015,3.132,0.021,4.697
		c0.002,0.558,0.001,0.558,0.568,0.558c0.917,0,1.834,0.011,2.75-0.004c0.318-0.005,0.428,0.117,0.422,0.425
		c-0.014,0.636-0.01,1.274-0.001,1.91c0.003,0.274-0.103,0.387-0.384,0.386c-1.896-0.008-3.795-0.005-5.691-0.002
		c-0.234,0-0.39-0.044-0.389-0.333c0.009-2.521,0.009-5.042,0.012-7.563c0-0.025,0.01-0.049,0.016-0.074
		C57.519,1.684,58.412,1.684,59.303,1.684z"/>
	<path fill-rule="evenodd" clip-rule="evenodd" fill="#E91A61" d="M46.023,13.199c6.74,0,13.48,0,20.22,0
		c0.609,0,0.615,0.013,0.56,0.628c-0.204,2.256-0.402,4.512-0.607,6.767c-0.271,2.99-0.55,5.98-0.817,8.971
		c-0.219,2.434-0.419,4.868-0.636,7.301c-0.241,2.699-0.498,5.397-0.739,8.096c-0.191,2.142-0.369,4.285-0.558,6.427
		c-0.12,1.343-0.257,2.686-0.366,4.03c-0.022,0.292-0.199,0.35-0.412,0.409c-1.46,0.405-2.919,0.812-4.379,1.217
		c-3.914,1.083-7.829,2.164-11.741,3.255c-0.38,0.105-0.728,0.117-1.116,0.007c-5.347-1.497-10.694-2.979-16.047-4.455
		c-0.316-0.088-0.452-0.213-0.48-0.559c-0.155-1.965-0.339-3.93-0.518-5.893c-0.192-2.129-0.395-4.256-0.585-6.385
		c-0.168-1.876-0.32-3.753-0.486-5.629c-0.163-1.837-0.342-3.673-0.506-5.511c-0.142-1.572-0.269-3.144-0.409-4.715
		c-0.165-1.85-0.343-3.7-0.508-5.55c-0.141-1.583-0.271-3.169-0.41-4.753c-0.086-0.976-0.183-1.95-0.273-2.926
		c-0.012-0.127-0.012-0.255-0.026-0.382c-0.034-0.272,0.097-0.355,0.354-0.353c0.713,0.011,1.427,0.003,2.141,0.003
		C33.792,13.199,39.907,13.199,46.023,13.199z M46.01,21.961c0,0.002,0,0.004,0,0.005c-4.154,0-8.308,0-12.462,0
		c-0.536,0.001-0.562,0.035-0.513,0.563c0.224,2.407,0.45,4.814,0.664,7.221c0.219,2.433,0.423,4.868,0.636,7.301
		c0.047,0.537,0.061,0.546,0.595,0.546c3.439,0.001,6.88,0,10.32,0.001c2.217,0.001,4.434,0.003,6.65,0.007
		c0.542,0,0.536,0.007,0.487,0.53c-0.093,0.987-0.168,1.978-0.255,2.966c-0.09,1-0.189,2.001-0.274,3.003
		c-0.021,0.252-0.13,0.372-0.381,0.438c-1.735,0.459-3.468,0.932-5.199,1.402c-0.216,0.058-0.42,0.06-0.639,0
		c-1.707-0.466-3.417-0.929-5.128-1.38c-0.269-0.072-0.407-0.18-0.43-0.481c-0.087-1.154-0.203-2.306-0.299-3.46
		c-0.017-0.202-0.082-0.302-0.296-0.302c-1.529,0.003-3.058,0.002-4.587,0.001c-0.197,0-0.269,0.082-0.248,0.284
		c0.058,0.57,0.098,1.141,0.15,1.711c0.169,1.862,0.355,3.723,0.5,5.587c0.029,0.375,0.15,0.529,0.503,0.625
		c3.291,0.903,6.577,1.823,9.864,2.739c0.215,0.06,0.417,0.062,0.636,0.001c3.286-0.916,6.574-1.831,9.865-2.729
		c0.32-0.088,0.468-0.239,0.495-0.563c0.125-1.51,0.264-3.017,0.395-4.526c0.138-1.559,0.271-3.119,0.408-4.677
		c0.172-1.952,0.339-3.904,0.528-5.853c0.036-0.366-0.094-0.419-0.414-0.419c-3.797,0.01-7.594,0.005-11.391,0.006
		c-2.204,0.001-4.409,0.005-6.613,0.007c-0.537,0.001-0.532-0.007-0.569-0.561c-0.027-0.418-0.081-0.835-0.118-1.254
		c-0.098-1.115-0.188-2.231-0.289-3.346c-0.018-0.197,0.052-0.292,0.245-0.297c0.141-0.003,0.28-0.004,0.421-0.004
		c6.192,0.002,12.384,0.004,18.577,0.007c0.708,0.001,0.708,0,0.745-0.712c0.002-0.038,0.001-0.078,0.003-0.116
		c0.113-1.267,0.21-2.537,0.348-3.8c0.037-0.352-0.014-0.478-0.394-0.476C54.37,21.964,50.19,21.961,46.01,21.961z"/>
</g>
</svg>
