<?xml version="1.0" encoding="utf-8"?>
<!-- Generator: Adobe Illustrator 16.0.3, SVG Export Plug-In . SVG Version: 6.00 Build 0)  -->
<!DOCTYPE svg PUBLIC "-//W3C//DTD SVG 1.1//EN" "http://www.w3.org/Graphics/SVG/1.1/DTD/svg11.dtd">
<svg version="1.1" id="Layer_1" xmlns="http://www.w3.org/2000/svg" xmlns:xlink="http://www.w3.org/1999/xlink" x="0px" y="0px"
	 width="92px" height="62px" viewBox="0 0 92 62" enable-background="new 0 0 92 62" xml:space="preserve">
<g>
	<g>
		<g>
			<path fill="#0A90CF" d="M63.665,36.678c0,4.825-1.736,8.921-5.21,12.292c-3.473,3.37-7.627,5.056-12.463,5.056
				c-4.838,0-8.99-1.686-12.457-5.056c-3.466-3.37-5.2-7.467-5.2-12.292s1.739-8.934,5.218-12.328
				c3.455-3.358,7.601-5.038,12.438-5.038c4.836,0,8.982,1.679,12.436,5.038C61.919,27.745,63.665,31.854,63.665,36.678z
				 M62.701,36.678c0-4.473-1.728-8.377-5.182-11.71l-0.582,1.001l-2.8-0.747l-2.146,0.601l-1.036,2.8l-2.291,0.6l-0.31,2.364
				l-0.946-0.437l-0.745,2l0.673,3.618l-0.818,1.545l-1.564,0.073l0.382,2.073c-1.199-0.678-2.606-1.643-4.217-2.891l-2.729-0.254
				c-0.302-0.158-0.793-0.375-1.472-0.655c-0.8,1.031-1.843,2.176-3.129,3.437l-0.072,1.328l-0.6,1.218l-0.674-0.055l-2.272-4.564
				l0.072-1.328l-0.945-0.055v0.037c0,4.558,1.648,8.438,4.945,11.638c3.26,3.163,7.176,4.745,11.748,4.745
				c4.569,0,8.497-1.591,11.783-4.772C61.059,45.106,62.701,41.236,62.701,36.678z M37.099,42.915
				c-0.74,0.679-1.478,1.218-2.218,1.619l-0.891-0.4l1.564-1.617L37.099,42.915z M45.064,40.951l-0.547,0.474l-0.672-0.4
				L45.064,40.951z M54.719,45.643c-0.183,1.139-0.994,2.417-2.438,3.837l-0.891,0.072l-3.036-1.255l-2.874,0.147
				c0.012-0.667-0.259-1.456-0.818-2.365c0.182-0.848,0.673-1.733,1.473-2.654c1.721,0.193,3.176-0.055,4.364-0.747l1.272,1.038
				l0.729-1.928C52.912,43.097,53.652,44.382,54.719,45.643z M47.863,40.969l-0.527,0.747l-0.946-1.274L47.863,40.969z
				 M50.573,31.514c-0.352,0.8-0.982,1.88-1.892,3.237l-0.437,0.091c0.631-1.733,1.235-2.94,1.819-3.618L50.573,31.514z
				 M50.064,41.57l-1.419-0.8l1.346-0.418L50.064,41.57z M51.937,30.132l-0.909,0.564h-0.746l0.746-1.255l0.509,0.092L51.937,30.132
				z M53.118,50.297l-0.399,0.509l-1.201-0.072l0.909-0.745L53.118,50.297z M53.537,39.169l-0.473,1.201l-1.146-0.109L53.537,39.169
				z M54.464,42.042l-0.709,0.273l0.49-1.037L54.464,42.042z M59.773,44.533l-0.563,1.273c-0.849,0.544-1.716,1.121-2.601,1.727
				l-0.581,1.328l-0.527,0.381l-0.419-0.636c0.412-0.909,0.83-1.564,1.256-1.964l1.235-0.546c0.303-0.775,0.654-1.412,1.055-1.909
				l0.527,0.8L59.773,44.533z"/>
		</g>
	</g>
	<g>
		<path fill="#0A90CF" d="M46,61c-16.542,0-30-13.458-30-30S29.458,1,46,1c16.542,0,30,13.458,30,30S62.542,61,46,61z M46,2.343
			C30.199,2.343,17.343,15.198,17.343,31c0,15.802,12.855,28.657,28.656,28.657c15.801,0,28.657-12.855,28.657-28.657
			C74.656,15.198,61.801,2.343,46,2.343z"/>
	</g>
	<g>
		<path fill="#0A90CF" d="M36.233,14.302c0,0.413-0.302,0.737-0.782,0.737c-0.458,0-0.76-0.324-0.76-0.737
			c0-0.425,0.313-0.749,0.771-0.749C35.932,13.553,36.222,13.877,36.233,14.302z M34.77,21.261v-5.44h1.385v5.44H34.77z"/>
		<path fill="#0A90CF" d="M37.63,17.441c0-0.626-0.011-1.151-0.045-1.62h1.207l0.067,0.815h0.034
			c0.234-0.424,0.826-0.939,1.731-0.939c0.95,0,1.933,0.615,1.933,2.335v3.229h-1.374v-3.072c0-0.782-0.291-1.374-1.039-1.374
			c-0.547,0-0.927,0.391-1.072,0.805c-0.044,0.123-0.056,0.29-0.056,0.447v3.195H37.63V17.441z"/>
	</g>
	<g>
		<path fill="#0A90CF" d="M45.362,19.732v-4.667h-0.78v-1.087h0.78v-0.249c0-0.744,0.201-1.489,0.697-1.961
			c0.425-0.402,1.004-0.556,1.5-0.556c0.391,0,0.698,0.059,0.935,0.142l-0.106,1.123c-0.153-0.059-0.354-0.106-0.615-0.106
			c-0.721,0-0.968,0.602-0.968,1.312v0.295h1.264v1.087h-1.252v4.667H45.362z"/>
	</g>
	<g>
		<circle fill="#0A90CF" cx="52.896" cy="17.05" r="3.106"/>
	</g>
	<g>
		<polygon fill="#0A90CF" points="52.896,19.629 55.325,17.031 56.36,20.434 		"/>
	</g>
	<g>
		<path fill="#FFFFFF" d="M52.824,18.224c-0.193-0.218-0.375-0.459-0.543-0.727c-0.164-0.261-0.302-0.526-0.412-0.795
			c-0.109-0.268-0.193-0.539-0.25-0.813c0.111-0.208,0.25-0.387,0.416-0.534c0.104,0.079,0.191,0.17,0.258,0.277
			c0.109,0.173,0.167,0.383,0.176,0.629l-0.038,0.025c-0.176,0.109-0.092,0.437,0.251,0.983c0.332,0.527,0.585,0.736,0.76,0.625
			l0.038-0.023c0.21,0.132,0.368,0.283,0.475,0.454c0.064,0.101,0.116,0.211,0.158,0.331c-0.223,0.093-0.444,0.142-0.665,0.146
			C53.228,18.633,53.019,18.44,52.824,18.224z"/>
	</g>
</g>
</svg>
