<?xml version="1.0" encoding="utf-8"?>
<!-- Generator: Adobe Illustrator 16.0.3, SVG Export Plug-In . SVG Version: 6.00 Build 0)  -->
<!DOCTYPE svg PUBLIC "-//W3C//DTD SVG 1.1//EN" "http://www.w3.org/Graphics/SVG/1.1/DTD/svg11.dtd">
<svg version="1.1" id="Layer_1" xmlns="http://www.w3.org/2000/svg" xmlns:xlink="http://www.w3.org/1999/xlink" x="0px" y="0px"
	 width="92px" height="62px" viewBox="0 0 92 62" enable-background="new 0 0 92 62" xml:space="preserve">
<g>
	<g>
		<path fill="#0A90CF" d="M46.001,61C29.458,61,16,47.542,16,31S29.458,1,46.001,1C62.543,1,76,14.458,76,31S62.543,61,46.001,61z
			 M46.001,2.344C30.199,2.344,17.344,15.198,17.344,31s12.855,28.656,28.657,28.656c15.801,0,28.656-12.854,28.656-28.656
			S61.802,2.344,46.001,2.344z"/>
	</g>
	<g>
		<path fill="#0A90CF" d="M50.033,14.816c0,0.413-0.302,0.737-0.781,0.737c-0.458,0-0.76-0.324-0.76-0.737
			c0-0.425,0.313-0.749,0.771-0.749C49.731,14.067,50.022,14.392,50.033,14.816z M48.57,21.775v-5.44h1.385v5.44H48.57z"/>
		<path fill="#0A90CF" d="M51.43,17.955c0-0.626-0.011-1.151-0.045-1.62h1.207l0.067,0.815h0.033
			c0.234-0.424,0.826-0.938,1.73-0.938c0.95,0,1.934,0.613,1.934,2.334v3.229h-1.374v-3.071c0-0.783-0.291-1.375-1.039-1.375
			c-0.547,0-0.928,0.392-1.072,0.805c-0.045,0.122-0.056,0.29-0.056,0.446v3.195H51.43V17.955z"/>
	</g>
	<g>
		<path fill="#0A90CF" d="M56.497,34.688v-4.668h-0.779v-1.087h0.779v-0.248c0-0.745,0.201-1.489,0.697-1.961
			c0.426-0.402,1.005-0.556,1.501-0.556c0.39,0,0.697,0.059,0.934,0.142l-0.106,1.123c-0.153-0.06-0.354-0.106-0.615-0.106
			c-0.721,0-0.969,0.602-0.969,1.311v0.296h1.265v1.087h-1.252v4.668H56.497z"/>
	</g>
	<g>
		<circle fill="#0A90CF" cx="62.982" cy="20.663" r="3.106"/>
	</g>
	<g>
		<polygon fill="#0A90CF" points="62.982,23.242 65.41,20.646 66.445,24.047 		"/>
	</g>
	<g>
		<path fill="#FFFFFF" d="M62.91,21.837c-0.193-0.217-0.375-0.458-0.543-0.726c-0.164-0.262-0.302-0.527-0.412-0.795
			c-0.11-0.269-0.194-0.539-0.251-0.814c0.112-0.209,0.251-0.386,0.417-0.532c0.104,0.077,0.19,0.169,0.258,0.276
			c0.108,0.172,0.167,0.383,0.176,0.628l-0.038,0.025c-0.175,0.11-0.092,0.437,0.251,0.982c0.331,0.527,0.585,0.736,0.76,0.626
			l0.038-0.023c0.21,0.134,0.368,0.284,0.474,0.453c0.064,0.102,0.117,0.212,0.159,0.332c-0.223,0.092-0.444,0.141-0.664,0.146
			C63.313,22.246,63.104,22.054,62.91,21.837z"/>
	</g>
	<g>
		<path fill-rule="evenodd" clip-rule="evenodd" fill="#0A90CF" d="M29.768,31.011c3.213-1.875,6.426-3.749,9.639-5.624
			c2.203,0.744,2.313,2.835,2.69,4.567c0.552,2.531,2.663,4.914,0.973,7.73c-3.868,0.852-7.805,0.648-11.719,0.77
			C28.328,36.402,27.763,33.743,29.768,31.011z"/>
	</g>
	<g>
		<path fill-rule="evenodd" clip-rule="evenodd" fill="#096C93" d="M29.768,31.011c-0.33,2.663,0.959,4.982,1.583,7.444
			c-0.215,0.092-0.429,0.185-0.645,0.276c-1.057,1.764-2.438,2.457-4.371,1.32l0.045,0.021c-1.219-0.558-1.421-1.693-1.813-2.828
			c-0.344-0.993-0.345-2.294-1.583-2.829c-0.253-0.201-0.468-0.435-0.645-0.705C24.528,32.021,27.286,31.896,29.768,31.011z"/>
	</g>
	<g>
		<path fill-rule="evenodd" clip-rule="evenodd" fill="#096C93" d="M43.069,37.685c-1.222-4.098-2.441-8.197-3.663-12.298
			c1.523-1.349,2.479-1.218,3.072,0.925c1.052,3.787,2.273,7.524,3.423,11.283l-0.002,0.035
			C44.962,37.999,44.021,38.15,43.069,37.685z"/>
	</g>
	<g>
		<path fill-rule="evenodd" clip-rule="evenodd" fill="#0A90CF" d="M26.335,40.052c1.457-0.439,2.915-0.879,4.371-1.32
			c-0.06,1.836,0.694,3.499,1.073,5.241c0.17,0.773,1.3,1.781-0.215,2.422c-1.322,0.559-1.971-0.313-2.511-1.297
			C28.136,43.423,27.24,41.734,26.335,40.052z"/>
	</g>
	<g>
		<path fill-rule="evenodd" clip-rule="evenodd" fill="#0A90CF" d="M24.563,40.45c-5.032-2.029-5.305-2.858-2.223-6.738
			c-0.001-0.002,0.199,0.102,0.199,0.102C24.42,35.658,25.1,37.869,24.563,40.45z"/>
	</g>
	<g>
		<path fill-rule="evenodd" clip-rule="evenodd" fill="#096C93" d="M24.563,40.45c-0.675-2.212-1.35-4.425-2.023-6.637
			c1.909-0.346,2.223,1.096,2.645,2.386c0.42,1.284,0.8,2.581,1.195,3.873C25.775,40.198,25.169,40.324,24.563,40.45z"/>
	</g>
	<g>
		
			<rect x="43.991" y="22.565" transform="matrix(0.7511 0.6602 -0.6602 0.7511 26.993 -23.5003)" fill="#0A90CF" width="1.343" height="2.964"/>
	</g>
	<g>
		
			<rect x="46.782" y="28.042" transform="matrix(0.4013 0.916 -0.916 0.4013 55.4475 -25.7932)" fill="#0A90CF" width="1.343" height="2.948"/>
	</g>
	<g>
		
			<rect x="47.777" y="35.094" transform="matrix(0.959 0.2833 -0.2833 0.959 12.144 -12.4528)" fill="#0A90CF" width="2.71" height="1.343"/>
	</g>
</g>
</svg>
