<?xml version="1.0" encoding="utf-8"?>
<!-- Generator: Adobe Illustrator 16.0.3, SVG Export Plug-In . SVG Version: 6.00 Build 0)  -->
<!DOCTYPE svg PUBLIC "-//W3C//DTD SVG 1.1//EN" "http://www.w3.org/Graphics/SVG/1.1/DTD/svg11.dtd">
<svg version="1.1" id="Layer_1" xmlns="http://www.w3.org/2000/svg" xmlns:xlink="http://www.w3.org/1999/xlink" x="0px" y="0px"
	 width="92px" height="62px" viewBox="0 0 92 62" enable-background="new 0 0 92 62" xml:space="preserve">
<g>
	<g>
		<path fill-rule="evenodd" clip-rule="evenodd" fill="#FEAE05" d="M4.788,50.682c0-16.002,0.005-32.005-0.018-48.01
			C4.769,2.071,4.919,1.983,5.478,1.983C29.134,2,52.793,1.997,76.449,1.997c0.891,0.458,1.184,1.196,1.18,2.178
			c-0.023,5.615,0,11.23-0.023,16.846c-0.002,0.756,0.221,1.047,1.006,1.032c2.111-0.042,4.225,0.021,6.336-0.029
			c1.016-0.022,1.77,0.294,2.268,1.185c0,12.05-0.004,24.101,0.016,36.152c0.002,0.551-0.107,0.658-0.658,0.658
			c-9.158-0.021-18.316-0.016-27.475-0.016c-0.865-0.43-1.205-1.121-1.182-2.088c0.043-1.686-0.002-3.373,0.018-5.059
			c0.008-0.604-0.205-0.881-0.836-0.877c-2.596,0.016-5.191,0.012-7.789,0.004c-0.574-0.002-0.834,0.248-0.826,0.82
			c0.01,0.883,0.027,1.768-0.01,2.65c-0.031,0.768,0.293,1.055,1.047,1.035c0.908-0.025,1.824-0.033,2.725,0.057
			c1.072,0.105,1.719,0.932,1.635,1.916c-0.063,0.715-0.535,1.139-1.049,1.541c-7.338,0-14.674,0-22.012,0
			c-1.014-0.674-1.354-1.377-1.088-2.254c0.248-0.818,0.918-1.232,2.102-1.26c0.802-0.021,1.605-0.027,2.406-0.006
			c0.658,0.016,0.916-0.273,0.891-0.92c-0.027-0.748-0.004-1.498-0.004-2.246c-0.002-1.332-0.004-1.334-1.338-1.334
			c-8.852-0.002-17.705-0.008-26.558,0.008C6.145,51.994,5.281,51.719,4.788,50.682z M41.192,5.52c-10.55,0-21.098,0-31.648,0.002
			c-1.138,0-1.205,0.065-1.205,1.164c-0.003,9.211-0.003,18.422,0.001,27.632c0,0.998,0.078,1.082,1.032,1.082
			c15.851,0.002,31.701-0.002,47.552,0.014c0.771,0,1.023-0.268,1.018-1.033c-0.031-3.373-0.016-6.747-0.012-10.121
			c0.002-1.695,0.518-2.219,2.195-2.221c4.205-0.003,8.408,0,12.611-0.002c1.299,0,1.314-0.013,1.314-1.285
			c0.002-4.605,0.002-9.211,0-13.816c0-1.402-0.014-1.416-1.451-1.416C62.131,5.52,51.662,5.52,41.192,5.52z M83.666,37.025
			c0-3.482,0.002-6.963-0.002-10.444c-0.002-1.027-0.059-1.08-1.104-1.08c-6.695-0.003-13.391-0.003-20.084,0
			c-1.051,0-1.086,0.034-1.086,1.087c-0.002,6.908-0.002,13.816,0,20.726c0,1.043,0.043,1.086,1.092,1.086
			c6.695,0.002,13.389,0.002,20.084,0c1.035-0.002,1.096-0.063,1.098-1.092C83.668,43.881,83.666,40.453,83.666,37.025z
			 M33.154,38.984c-7.895,0-15.79,0-23.686,0.002c-1.085,0-1.128,0.045-1.13,1.139c-0.004,2.355-0.003,4.711-0.001,7.064
			C8.339,48.379,8.36,48.4,9.558,48.4c6.637,0.002,13.275,0,19.912,0c9.073,0,18.147,0.002,27.219,0c1.236,0,1.238-0.004,1.238-1.26
			c0.002-2.303,0.002-4.604,0-6.904c-0.002-1.248-0.002-1.252-1.248-1.252C48.838,38.984,40.996,38.984,33.154,38.984z
			 M72.594,51.982c-0.775,0-1.553,0-2.33,0c-2.623,0-5.248,0.02-7.873-0.012c-0.773-0.01-1.061,0.273-1.01,1.037
			c0.047,0.721,0.008,1.445,0.01,2.168c0.002,1.289,0.012,1.301,1.297,1.303c6.561,0,13.121,0,19.682,0
			c0.188,0,0.375-0.008,0.563-0.008c0.5-0.002,0.73-0.254,0.729-0.748c-0.002-0.883,0.01-1.768,0.004-2.65
			c-0.006-1.02-0.072-1.088-1.109-1.088C79.234,51.98,75.914,51.982,72.594,51.982z M41.803,51.986
			c-0.774,0-1.549,0.008-2.323-0.002c-0.527-0.006-0.799,0.223-0.795,0.764c0.004,0.988,0.003,1.975,0.002,2.963
			c-0.001,0.543,0.287,0.764,0.805,0.762c1.549-0.002,3.098-0.004,4.646,0.002c0.529,0.002,0.783-0.229,0.776-0.775
			c-0.015-0.986-0.016-1.975,0-2.963c0.009-0.557-0.265-0.762-0.788-0.754C43.352,51.994,42.578,51.986,41.803,51.986z"/>
	</g>
	<path fill-rule="evenodd" clip-rule="evenodd" fill="#FEAE05" d="M41.232,44.822c-0.819,0.016-1.473-0.621-1.479-1.447
		c-0.007-0.811,0.654-1.502,1.44-1.508c0.781-0.006,1.483,0.684,1.496,1.467C42.703,44.137,42.048,44.807,41.232,44.822z"/>
	<path fill-rule="evenodd" clip-rule="evenodd" fill="#FEAE05" d="M72.537,53.064c0.668-0.008,1.182,0.479,1.197,1.131
		c0.016,0.654-0.479,1.191-1.119,1.217c-0.678,0.025-1.242-0.51-1.244-1.18C71.369,53.584,71.879,53.072,72.537,53.064z"/>
</g>
</svg>
