<?xml version="1.0" encoding="utf-8"?>
<!-- Generator: Adobe Illustrator 16.0.3, SVG Export Plug-In . SVG Version: 6.00 Build 0)  -->
<!DOCTYPE svg PUBLIC "-//W3C//DTD SVG 1.1//EN" "http://www.w3.org/Graphics/SVG/1.1/DTD/svg11.dtd">
<svg version="1.1" id="Layer_1" xmlns="http://www.w3.org/2000/svg" xmlns:xlink="http://www.w3.org/1999/xlink" x="0px" y="0px"
	 width="92px" height="62px" viewBox="0 0 92 62" enable-background="new 0 0 92 62" xml:space="preserve">
<g>
	<path fill-rule="evenodd" clip-rule="evenodd" fill="#FEAE05" d="M48.368,0.599c6.691,0,13.381,0,20.068,0
		c1.568,0,1.789,0.218,1.789,1.757c0.001,6.189,0,12.378,0.001,18.568c0,0.988,0.004,0.99,0.99,0.992
		c3.596,0.001,7.189-0.001,10.784,0.001c1.494,0.001,2.078,0.582,2.079,2.067c0.004,7.094,0.003,14.201,0,21.294
		c-0.001,1.525-0.576,2.09-2.129,2.09c-4.357,0.001-8.713,0.016-13.068-0.014c-0.717-0.005-0.941,0.201-0.936,0.93
		c0.033,4.118,0.017,8.236,0.016,12.354c0,1.313-0.449,1.767-1.748,1.767c-2.569,0.004-5.141,0.006-7.712,0
		c-1.159-0.002-1.6-0.44-1.601-1.597c-0.004-5.785-0.004-11.569,0-17.354c0.001-1.267,0.447-1.702,1.729-1.704
		c1.833-0.002,3.665-0.017,5.499,0.009c0.578,0.01,0.804-0.169,0.796-0.771c-0.021-2.57-0.021-5.142,0-7.713
		c0.005-0.603-0.236-0.779-0.808-0.776c-2.999,0.019-5.997,0.019-8.998-0.002c-0.565-0.004-0.707,0.195-0.601,0.722
		c0.204,1.009,0.478,1.992,1.007,2.885c0.399,0.669,0.858,1.251,1.751,1.288c0.396,0.015,0.654,0.273,0.644,0.711
		c-0.01,0.468-0.29,0.704-0.726,0.715c-0.903,0.024-1.809,0.016-2.713,0.016c-2.618,0.001-5.236,0.02-7.855-0.012
		c-0.657-0.009-0.866,0.201-0.864,0.855c0.02,5.356,0.022,10.712-0.003,16.069c-0.003,0.708,0.254,0.907,0.919,0.872
		c0.854-0.044,1.713-0.017,2.569-0.008c0.319,0.006,0.728-0.08,0.804,0.386c0.072,0.446,0.112,0.905-0.381,1.198
		c-0.501,0.3-1.019,0.47-1.617,0.468c-5.81-0.012-11.615-0.008-17.425-0.008c-6.811,0-13.617-0.004-20.427,0.01
		c-0.671,0.001-1.259-0.161-1.818-0.516c-0.431-0.272-0.526-0.655-0.435-1.111c0.098-0.488,0.507-0.424,0.857-0.427
		c0.784-0.007,1.571-0.033,2.355,0.006c0.606,0.031,0.779-0.221,0.774-0.795c-0.018-3.118-0.009-6.236-0.009-9.354
		c0-3.501,0-6.999,0.003-10.499c0.001-1.17,0.193-1.361,1.373-1.363c9.189-0.002,18.379-0.002,27.568-0.002
		c0.926,0,1.599-0.87,1.392-1.796c-0.082-0.376-0.391-0.293-0.633-0.296c-1.429-0.009-2.854-0.006-4.284-0.006
		c-3.022,0-6.047,0.003-9.07-0.001c-1.351,0-2.102-0.72-2.104-2.05c-0.006-9.451-0.004-18.901,0-28.353
		c0-1.05,0.45-1.483,1.56-1.497c1.499-0.02,2.999-0.007,4.5-0.007C37.609,0.599,42.99,0.599,48.368,0.599z M48.206,3.069
		c-6.233,0-12.469,0-18.702,0c-1.122,0-1.123,0.001-1.123,1.152c0,6.758,0,13.516,0,20.275c0,1.134,0.001,1.135,1.137,1.135
		c11.279,0.001,22.56,0.002,33.838-0.001c1.74,0,1.515,0.162,1.526-1.524c0.012-1.717,0.491-2.212,2.197-2.222
		c0.938-0.004,0.943-0.004,0.943-0.952c0.001-5.615,0-11.231,0-16.848c0-1.012-0.004-1.015-1.042-1.015
		C60.724,3.069,54.464,3.069,48.206,3.069z M28.913,55.187c4.854,0,9.71,0,14.563,0c1.007,0,1.013-0.003,1.014-0.971
		c0.001-5.664,0-11.328-0.001-16.991c0-0.971-0.007-0.977-1.012-0.977c-9.71-0.001-19.418-0.001-29.127,0
		c-0.959,0-0.96,0.005-0.962,0.939c-0.001,5.688-0.001,11.373,0,17.061c0.002,0.936,0.003,0.938,0.961,0.938
		C19.205,55.187,24.06,55.187,28.913,55.187z M82.447,33.618c0-2.96-0.014-5.912,0.013-8.861c0.006-0.625-0.194-0.823-0.819-0.821
		c-4.712,0.02-9.422,0.02-14.134,0.001c-0.635-0.004-0.884,0.175-0.879,0.847c0.021,5.354,0.015,10.72,0.005,16.071
		c0,0.46,0.117,0.76,0.569,0.942c0.361,0.145,0.66,0.436,0.762,0.81c0.144,0.537,0.491,0.604,0.965,0.604
		c4.21-0.013,8.422-0.021,12.635,0.006c0.677,0.003,0.906-0.194,0.897-0.89C82.429,39.424,82.448,36.521,82.447,33.618z
		 M67.066,51.878c0-2.211-0.018-4.424,0.012-6.635c0.008-0.656-0.218-0.867-0.87-0.859c-2.545,0.029-5.091,0.025-7.637,0.004
		c-0.59-0.006-0.786,0.195-0.785,0.783c0.019,4.448,0.02,8.898-0.001,13.347c-0.004,0.624,0.2,0.828,0.824,0.82
		c2.544-0.027,5.09-0.027,7.636-0.001c0.619,0.007,0.839-0.195,0.832-0.821C67.05,56.305,67.065,54.092,67.066,51.878z"/>
	<path fill-rule="evenodd" clip-rule="evenodd" fill="#FEAE05" d="M48.054,14.226c-4.019,0-8.04,0-12.057-0.002
		c-1.01,0-1.092-0.086-1.093-1.105c-0.002-1.499-0.002-2.998,0.001-4.496c0.002-1.017,0.111-1.129,1.162-1.131
		c2.496-0.003,4.994,0,7.491,0c5.519,0,11.036-0.002,16.554,0c1.155,0,1.336,0.131,1.354,1.306c0.021,1.495,0.066,2.991-0.067,4.491
		c-0.068,0.762-0.369,0.951-1.071,0.947C56.236,14.214,52.146,14.226,48.054,14.226z"/>
	<path fill-rule="evenodd" clip-rule="evenodd" fill="#FEAE05" d="M38.954,18.076c-1.043,0-2.09,0.005-3.133-0.001
		c-0.858-0.006-1.031-0.121-1.039-0.676c-0.007-0.483,0.002-0.965,0.002-1.448c0-0.354,0.282-0.533,0.831-0.534
		c2.256-0.002,4.513-0.001,6.77,0c0.466,0,0.697,0.154,0.697,0.45c0,0.587-0.001,1.175,0,1.764c0,0.333-0.3,0.445-0.778,0.445
		c-1.115-0.004-2.232-0.001-3.35-0.001C38.954,18.076,38.954,18.076,38.954,18.076z"/>
	<path fill-rule="evenodd" clip-rule="evenodd" fill="#FEAE05" d="M57.316,18.076c-1.095,0-2.189-0.007-3.283,0.003
		c-0.604,0.005-0.869-0.161-0.856-0.544c0.021-0.529,0.017-1.058,0.005-1.586c-0.01-0.36,0.259-0.532,0.815-0.532
		c2.211-0.002,4.423-0.001,6.636-0.002c0.547,0,0.85,0.162,0.852,0.521c0.001,0.528,0.007,1.057-0.006,1.585
		c-0.009,0.391-0.33,0.566-0.953,0.56C59.456,18.067,58.385,18.076,57.316,18.076z"/>
	<path fill-rule="evenodd" clip-rule="evenodd" fill="#FEAE05" d="M47.931,18.076c-1.045,0-2.091,0.005-3.136-0.003
		c-0.829-0.005-1.017-0.121-1.028-0.635c-0.011-0.483,0.005-0.966-0.002-1.449c-0.009-0.368,0.247-0.573,0.842-0.574
		c2.211-0.001,4.421,0,6.632-0.001c0.563,0,0.828,0.18,0.83,0.532c0.002,0.513-0.011,1.025,0.005,1.538
		c0.016,0.415-0.254,0.608-0.933,0.597C50.071,18.063,49.002,18.076,47.931,18.076z"/>
	<path fill-rule="evenodd" clip-rule="evenodd" fill="#FEAE05" d="M39.373,4.325c1.163-0.002,2.327,0.017,3.49-0.008
		c0.673-0.015,0.963,0.284,0.939,0.939c-0.01,0.285,0.005,0.57-0.008,0.854c-0.021,0.515-0.305,0.797-0.813,0.797
		c-2.422,0.011-4.845,0.016-7.267-0.002c-0.573-0.003-0.927-0.328-0.94-0.939c-0.008-0.26-0.001-0.523-0.001-0.783
		c0.001-0.596,0.317-0.858,0.894-0.858C36.903,4.326,38.138,4.326,39.373,4.325z"/>
	<path fill-rule="evenodd" clip-rule="evenodd" fill="#FEAE05" d="M47.992,22.712c1.117,0,2.235-0.006,3.354,0.004
		c0.271,0.001,0.653-0.061,0.644,0.358c-0.013,0.388-0.38,0.371-0.659,0.371c-2.26,0.006-4.518,0.009-6.778,0.002
		c-0.301-0.002-0.71,0.03-0.701-0.401c0.009-0.424,0.431-0.387,0.721-0.392c1.14-0.019,2.28-0.007,3.421-0.007
		C47.992,22.668,47.992,22.69,47.992,22.712z"/>
	<path fill-rule="evenodd" clip-rule="evenodd" fill="#FEAE05" d="M47.939,19.729c1.093,0,2.188-0.008,3.281,0.005
		c0.29,0.004,0.725-0.088,0.748,0.336c0.021,0.452-0.421,0.37-0.708,0.371c-2.236,0.01-4.474,0.009-6.71,0.001
		c-0.273,0-0.671,0.048-0.679-0.335c-0.007-0.443,0.421-0.37,0.712-0.374C45.701,19.721,46.82,19.729,47.939,19.729z"/>
	<path fill-rule="evenodd" clip-rule="evenodd" fill="#FEAE05" d="M47.88,22.448c-1.119,0-2.239,0.007-3.356-0.003
		c-0.279-0.002-0.663,0.028-0.656-0.362c0.005-0.39,0.396-0.346,0.67-0.347c2.26-0.006,4.521-0.006,6.782,0.002
		c0.273,0.001,0.66-0.043,0.654,0.359c-0.008,0.396-0.396,0.345-0.668,0.348C50.163,22.455,49.021,22.448,47.88,22.448z"/>
	<path fill-rule="evenodd" clip-rule="evenodd" fill="#FEAE05" d="M47.935,20.731c1.096,0,2.19-0.009,3.284,0.004
		c0.289,0.004,0.725-0.09,0.747,0.334c0.024,0.449-0.417,0.373-0.704,0.375c-2.236,0.009-4.475,0.006-6.711,0
		c-0.273,0-0.672,0.044-0.68-0.335c-0.011-0.448,0.421-0.369,0.708-0.372C45.698,20.723,46.815,20.731,47.935,20.731z"/>
	<path fill-rule="evenodd" clip-rule="evenodd" fill="#FEAE05" d="M38.871,20.446c-1.114,0-2.228,0.005-3.343-0.004
		c-0.272-0.002-0.657,0.039-0.648-0.361c0.01-0.393,0.395-0.345,0.667-0.347c2.229-0.007,4.458-0.007,6.687,0
		c0.27,0,0.652-0.047,0.644,0.361c-0.009,0.403-0.392,0.345-0.663,0.347C41.101,20.451,39.986,20.446,38.871,20.446z"/>
	<path fill-rule="evenodd" clip-rule="evenodd" fill="#FEAE05" d="M38.88,22.451c-1.114-0.002-2.23,0.003-3.345-0.006
		c-0.273-0.002-0.657,0.038-0.655-0.356c0.001-0.398,0.387-0.351,0.659-0.352c2.229-0.007,4.457-0.007,6.688,0
		c0.27,0,0.654-0.052,0.651,0.355c-0.001,0.403-0.382,0.353-0.655,0.355C41.107,22.455,39.994,22.451,38.88,22.451z"/>
	<path fill-rule="evenodd" clip-rule="evenodd" fill="#FEAE05" d="M38.898,21.45c-1.09-0.002-2.18,0.007-3.271-0.006
		c-0.289-0.003-0.722,0.091-0.741-0.337c-0.021-0.45,0.419-0.367,0.704-0.368c2.206-0.01,4.411-0.01,6.617-0.002
		c0.269,0,0.661-0.062,0.667,0.336c0.009,0.458-0.418,0.368-0.702,0.372C41.08,21.458,39.99,21.45,38.898,21.45z"/>
	<path fill-rule="evenodd" clip-rule="evenodd" fill="#FEAE05" d="M38.848,23.45c-1.093,0-2.185,0.005-3.275-0.002
		c-0.28-0.002-0.655,0.027-0.672-0.353c-0.021-0.471,0.406-0.378,0.689-0.378c2.207-0.01,4.415-0.009,6.62,0
		c0.268,0,0.653-0.072,0.668,0.335c0.018,0.464-0.396,0.39-0.685,0.393C41.076,23.458,39.963,23.45,38.848,23.45z"/>
	<path fill-rule="evenodd" clip-rule="evenodd" fill="#FEAE05" d="M57.201,22.712c1.096,0,2.188-0.006,3.283,0.004
		c0.271,0.001,0.646-0.066,0.669,0.344c0.023,0.421-0.348,0.386-0.624,0.388c-2.213,0.007-4.426,0.004-6.64,0
		c-0.306,0-0.692,0.017-0.652-0.44c0.036-0.43,0.414-0.295,0.681-0.297c1.094-0.006,2.188-0.003,3.283-0.003
		C57.201,22.709,57.201,22.71,57.201,22.712z"/>
	<path fill-rule="evenodd" clip-rule="evenodd" fill="#FEAE05" d="M57.247,21.732c1.092,0,2.184-0.006,3.273,0.005
		c0.273,0.003,0.646-0.044,0.631,0.376c-0.014,0.362-0.353,0.332-0.604,0.332c-2.231,0.006-4.463,0.006-6.693,0
		c-0.256,0-0.595,0.015-0.598-0.344c-0.001-0.415,0.374-0.363,0.646-0.365C55.016,21.726,56.132,21.732,57.247,21.732z"/>
	<path fill-rule="evenodd" clip-rule="evenodd" fill="#FEAE05" d="M57.234,20.731c1.068,0,2.138-0.009,3.205,0.004
		c0.286,0.004,0.71-0.09,0.709,0.368c-0.003,0.399-0.395,0.34-0.665,0.341c-2.183,0.006-4.367,0.006-6.551-0.001
		c-0.271,0-0.662,0.061-0.672-0.335c-0.013-0.461,0.416-0.368,0.699-0.373C55.053,20.723,56.145,20.731,57.234,20.731z"/>
	<path fill-rule="evenodd" clip-rule="evenodd" fill="#FEAE05" d="M57.136,20.446c-1.094,0-2.188,0.003-3.282-0.004
		c-0.252-0.001-0.595,0.027-0.586-0.345c0.008-0.348,0.335-0.359,0.596-0.36c2.236-0.007,4.473-0.007,6.71-0.003
		c0.258,0.002,0.587-0.009,0.583,0.36c-0.006,0.367-0.337,0.347-0.593,0.349C59.422,20.45,58.279,20.446,57.136,20.446z"/>
	<path fill-rule="evenodd" clip-rule="evenodd" fill="#FEAE05" d="M46.064,24.312c-0.568,0-1.137,0.006-1.704-0.003
		c-0.208-0.001-0.477,0.006-0.492-0.281c-0.014-0.293,0.257-0.306,0.465-0.308c1.158-0.005,2.316-0.005,3.477,0.001
		c0.212,0.001,0.477,0.015,0.455,0.314c-0.021,0.286-0.291,0.271-0.498,0.274C47.198,24.318,46.632,24.312,46.064,24.312z"/>
	<path fill-rule="evenodd" clip-rule="evenodd" fill="#FEAE05" d="M37.159,23.701c0.57,0,1.139,0,1.71,0
		c0.197,0,0.404,0.007,0.414,0.271c0.011,0.247-0.18,0.328-0.38,0.329c-1.212,0.007-2.421,0.006-3.632-0.002
		c-0.168-0.001-0.353-0.053-0.36-0.267c-0.011-0.264,0.206-0.298,0.395-0.303c0.617-0.01,1.235-0.003,1.854-0.003
		C37.159,23.718,37.159,23.708,37.159,23.701z"/>
	<path fill-rule="evenodd" clip-rule="evenodd" fill="#FEAE05" d="M55.471,23.707c0.544,0,1.088-0.002,1.632,0
		c0.173,0.001,0.347,0.02,0.356,0.249c0.011,0.201-0.122,0.327-0.299,0.328c-1.206,0.012-2.411,0.007-3.618-0.001
		c-0.145-0.001-0.274-0.102-0.267-0.274c0.011-0.211,0.179-0.274,0.349-0.277c0.615-0.011,1.231-0.005,1.847-0.005
		C55.471,23.72,55.471,23.714,55.471,23.707z"/>
	<path fill-rule="evenodd" clip-rule="evenodd" fill="#FEAE05" d="M28.922,40.251c2.809,0,5.615-0.001,8.422,0.003
		c0.938,0.002,1.015,0.079,1.019,1.021c0.004,1.237-0.016,2.475,0.006,3.711c0.01,0.596-0.206,0.87-0.828,0.868
		c-5.734-0.01-11.468-0.01-17.201,0c-0.608,0.002-0.86-0.242-0.85-0.851c0.02-1.285,0.028-2.57-0.003-3.854
		c-0.017-0.693,0.283-0.911,0.944-0.905C23.261,40.265,26.092,40.251,28.922,40.251z"/>
	<path fill-rule="evenodd" clip-rule="evenodd" fill="#FEAE05" d="M22.488,48.607c-0.714,0.001-1.426,0-2.14,0.002
		c-0.544,0.001-0.857-0.117-0.855-0.404c0-0.347-0.004-0.693-0.002-1.037c0.002-0.236,0.259-0.355,0.71-0.357
		c1.522-0.005,3.044-0.005,4.566,0c0.459,0,0.703,0.135,0.714,0.36c0.014,0.357,0.011,0.714,0.001,1.072
		c-0.008,0.25-0.303,0.362-0.784,0.364C23.962,48.608,23.227,48.607,22.488,48.607z"/>
	<path fill-rule="evenodd" clip-rule="evenodd" fill="#FEAE05" d="M35.365,48.608c-0.712,0-1.426-0.003-2.139,0.001
		c-0.499,0.003-0.752-0.111-0.747-0.366c0.005-0.357,0.004-0.715,0-1.072c-0.005-0.255,0.249-0.366,0.747-0.365
		c1.451,0.003,2.901,0.003,4.352,0c0.488-0.001,0.771,0.093,0.768,0.354c-0.005,0.358,0.003,0.715-0.006,1.072
		c-0.008,0.247-0.273,0.372-0.763,0.374c-0.737,0.002-1.475,0-2.212,0C35.365,48.607,35.365,48.607,35.365,48.608z"/>
	<path fill-rule="evenodd" clip-rule="evenodd" fill="#FEAE05" d="M28.953,46.807c0.713,0,1.424,0.002,2.137-0.001
		c0.465,0,0.709,0.11,0.706,0.348c0,0.369,0,0.738,0,1.107c0,0.236-0.242,0.348-0.707,0.348c-1.449-0.001-2.897-0.001-4.346-0.001
		c-0.417,0-0.689-0.087-0.695-0.313c-0.008-0.381-0.009-0.762-0.013-1.143c-0.001-0.238,0.245-0.346,0.71-0.346
		C27.481,46.809,28.218,46.807,28.953,46.807z"/>
	<path fill-rule="evenodd" clip-rule="evenodd" fill="#FEAE05" d="M22.675,39.519c-0.785,0-1.566-0.012-2.349,0.003
		c-0.563,0.012-0.813-0.244-0.85-0.802c-0.084-1.295,0.09-1.495,1.386-1.497c1.353,0,2.705-0.007,4.058,0.006
		c0.891,0.005,1.026,0.178,1.018,1.211c-0.007,0.933-0.127,1.069-0.985,1.079C24.191,39.524,23.434,39.519,22.675,39.519z"/>
	<path fill-rule="evenodd" clip-rule="evenodd" fill="#FEAE05" d="M22.131,53.357c-0.665,0-1.33,0.007-1.994-0.003
		c-0.238-0.004-0.532-0.019-0.55-0.33c-0.021-0.375,0.305-0.375,0.563-0.377c1.571-0.008,3.143-0.005,4.713,0
		c0.235,0,0.527,0.008,0.518,0.341c-0.007,0.312-0.28,0.351-0.526,0.36c-0.38,0.012-0.761,0.002-1.142,0.012
		c-0.426,0.01-0.934-0.152-1.032,0.534c-0.025,0.177-0.262,0.185-0.429,0.185c-0.738,0.003-1.475,0.007-2.213-0.003
		c-0.212-0.001-0.473-0.018-0.451-0.32c0.017-0.243,0.247-0.264,0.438-0.264c0.711-0.007,1.421-0.004,2.132-0.004
		C22.149,53.444,22.14,53.4,22.131,53.357z"/>
	<path fill-rule="evenodd" clip-rule="evenodd" fill="#FEAE05" d="M22.566,50.939c0.759-0.001,1.519-0.007,2.278,0.003
		c0.233,0.003,0.53,0.003,0.553,0.318c0.025,0.375-0.297,0.382-0.556,0.384c-1.567,0.007-3.135,0.005-4.704,0
		c-0.233-0.002-0.529-0.006-0.551-0.319c-0.026-0.376,0.299-0.378,0.556-0.382C20.95,50.933,21.758,50.939,22.566,50.939z"/>
	<path fill-rule="evenodd" clip-rule="evenodd" fill="#FEAE05" d="M22.48,52.511c-0.782,0.003-1.563,0.008-2.347-0.003
		c-0.263-0.004-0.572-0.022-0.552-0.392c0.019-0.312,0.302-0.332,0.541-0.332c1.586-0.005,3.175-0.005,4.763,0
		c0.243,0,0.513,0.039,0.519,0.356c0.004,0.317-0.262,0.363-0.506,0.367C24.093,52.515,23.286,52.51,22.48,52.511z"/>
	<path fill-rule="evenodd" clip-rule="evenodd" fill="#FEAE05" d="M35.422,52.645c0.785,0,1.57-0.005,2.354,0.003
		c0.237,0.002,0.521,0.008,0.534,0.334c0.015,0.328-0.261,0.365-0.505,0.367c-1.567,0.007-3.138,0.009-4.708,0.002
		c-0.242,0-0.526-0.052-0.535-0.351c-0.011-0.384,0.325-0.351,0.576-0.354C33.898,52.637,34.661,52.643,35.422,52.645z"/>
	<path fill-rule="evenodd" clip-rule="evenodd" fill="#FEAE05" d="M35.426,52.514c-0.758,0-1.516,0.003-2.273-0.004
		c-0.261-0.005-0.584-0.018-0.581-0.368c0.002-0.35,0.326-0.358,0.587-0.358c1.541-0.006,3.079-0.006,4.617,0
		c0.238,0,0.517,0.015,0.535,0.333c0.025,0.375-0.28,0.389-0.541,0.394C36.988,52.519,36.207,52.514,35.426,52.514z"/>
	<path fill-rule="evenodd" clip-rule="evenodd" fill="#FEAE05" d="M35.448,51.645c-0.782,0-1.565,0.007-2.348-0.002
		c-0.239-0.004-0.525-0.037-0.527-0.349c-0.001-0.313,0.286-0.349,0.525-0.349c1.563-0.007,3.129-0.009,4.693-0.003
		c0.241,0.001,0.519,0.03,0.521,0.35c0,0.32-0.277,0.351-0.519,0.353c-0.781,0.01-1.563,0.004-2.346,0.004
		C35.448,51.646,35.448,51.646,35.448,51.645z"/>
	<path fill-rule="evenodd" clip-rule="evenodd" fill="#FEAE05" d="M28.977,51.779c0.736,0,1.47-0.005,2.205,0.001
		c0.265,0.004,0.565,0.016,0.554,0.386c-0.01,0.321-0.285,0.344-0.526,0.344c-1.516,0.005-3.034,0.007-4.55,0
		c-0.263,0-0.574-0.014-0.554-0.384c0.02-0.364,0.341-0.342,0.598-0.346C27.461,51.771,28.219,51.777,28.977,51.779z"/>
	<path fill-rule="evenodd" clip-rule="evenodd" fill="#FEAE05" d="M28.881,51.649c-0.736,0-1.471,0.008-2.208-0.003
		c-0.257-0.004-0.578,0.003-0.566-0.371c0.01-0.32,0.3-0.332,0.536-0.333c1.52-0.006,3.038-0.006,4.559,0
		c0.238,0,0.528,0.015,0.533,0.335c0.005,0.372-0.315,0.365-0.573,0.369C30.4,51.655,29.643,51.648,28.881,51.649z"/>
	<path fill-rule="evenodd" clip-rule="evenodd" fill="#FEAE05" d="M28.899,53.36c-0.758,0-1.516,0.003-2.273-0.005
		c-0.241-0.004-0.516-0.034-0.522-0.353c-0.008-0.321,0.269-0.354,0.509-0.355c1.541-0.005,3.079-0.005,4.618,0
		c0.213,0,0.467,0.013,0.489,0.295c0.027,0.323-0.234,0.394-0.477,0.396c-0.78,0.016-1.563,0.006-2.344,0.006
		C28.899,53.351,28.899,53.354,28.899,53.36z"/>
	<path fill-rule="evenodd" clip-rule="evenodd" fill="#FEAE05" d="M22.461,50.784c-0.759-0.001-1.519,0.006-2.279-0.005
		c-0.227-0.004-0.552,0.029-0.567-0.282c-0.02-0.353,0.322-0.282,0.537-0.284c1.544-0.009,3.087-0.009,4.631-0.001
		c0.222,0.001,0.565-0.052,0.566,0.267c0.002,0.376-0.369,0.296-0.608,0.301C23.982,50.796,23.222,50.784,22.461,50.784z"/>
	<path fill-rule="evenodd" clip-rule="evenodd" fill="#FEAE05" d="M35.437,50.779c-0.782,0-1.563,0.005-2.347-0.005
		c-0.205-0.003-0.485-0.01-0.487-0.292c-0.001-0.302,0.289-0.27,0.489-0.27c1.563-0.007,3.131-0.005,4.695,0
		c0.204,0.002,0.485-0.014,0.485,0.28s-0.282,0.282-0.487,0.284c-0.781,0.012-1.563,0.006-2.349,0.006
		C35.437,50.781,35.437,50.781,35.437,50.779z"/>
	<path fill-rule="evenodd" clip-rule="evenodd" fill="#FEAE05" d="M28.973,50.212c0.762,0,1.521-0.004,2.283,0.003
		c0.182,0.002,0.424-0.007,0.432,0.257c0.008,0.248-0.227,0.293-0.412,0.295c-1.593,0.009-3.185,0.009-4.777,0.002
		c-0.165,0-0.358-0.052-0.36-0.266c-0.002-0.262,0.224-0.282,0.411-0.284c0.808-0.01,1.616-0.004,2.424-0.004
		C28.973,50.213,28.973,50.213,28.973,50.212z"/>
	<path fill-rule="evenodd" clip-rule="evenodd" fill="#FEAE05" d="M34.193,53.504c0.401,0,0.805-0.01,1.206,0.003
		c0.176,0.007,0.333,0.093,0.312,0.309c-0.016,0.168-0.158,0.243-0.304,0.245c-0.827,0.011-1.657,0.015-2.486,0.007
		c-0.169,0-0.342-0.068-0.346-0.278c-0.004-0.214,0.166-0.282,0.337-0.285c0.427-0.014,0.854-0.005,1.281-0.005V53.504z"/>
	<path fill-rule="evenodd" clip-rule="evenodd" fill="#FEAE05" d="M74.564,33.84c-1.689,0-3.378,0.005-5.067-0.004
		c-0.829-0.005-1.003-0.182-1.009-1.011c-0.011-1.25-0.011-2.485,0-3.723c0.007-0.805,0.176-0.988,0.955-0.992
		c3.401-0.007,6.803,0.004,10.205-0.008c0.6-0.002,0.869,0.222,0.859,0.838c-0.02,1.332-0.026,2.665,0.001,4.008
		c0.019,0.699-0.295,0.909-0.948,0.9C77.896,33.822,76.229,33.84,74.564,33.84z"/>
	<path fill-rule="evenodd" clip-rule="evenodd" fill="#FEAE05" d="M71.366,34.778c0.712,0,1.425,0.001,2.137-0.001
		c0.554-0.003,0.841,0.147,0.837,0.475c-0.003,0.371,0.004,0.743-0.01,1.114c-0.011,0.313-0.277,0.478-0.845,0.476
		c-1.377-0.005-2.754-0.003-4.131,0c-0.578,0.001-0.894-0.139-0.881-0.493c0.014-0.372,0.015-0.743-0.003-1.114
		c-0.015-0.34,0.271-0.469,0.83-0.46C69.988,34.784,70.678,34.777,71.366,34.778z"/>
	<path fill-rule="evenodd" clip-rule="evenodd" fill="#FEAE05" d="M77.646,36.839c-0.688,0-1.376,0-2.064,0
		c-0.414,0.003-0.66-0.104-0.743-0.349c-0.168-0.495,0.069-0.985,0.046-1.479c-0.007-0.175,0.319-0.228,0.592-0.228
		c1.469-0.005,2.94-0.005,4.41-0.002c0.447,0,0.627,0.154,0.627,0.398c-0.001,0.412-0.006,0.824,0.002,1.236
		c0.01,0.296-0.235,0.427-0.735,0.425C79.068,36.837,78.357,36.84,77.646,36.839z"/>
	<path fill-rule="evenodd" clip-rule="evenodd" fill="#FEAE05" d="M71.642,27.483c-0.784,0-1.567,0-2.352,0
		c-0.604,0-0.849-0.319-0.832-0.901c0.018-0.586-0.127-1.308,0.757-1.334c1.59-0.047,3.182-0.043,4.771-0.004
		c0.673,0.017,0.818,0.349,0.811,1.307c-0.004,0.611-0.232,0.947-0.875,0.938c-0.76-0.007-1.521-0.001-2.28-0.001
		C71.642,27.486,71.642,27.484,71.642,27.483z"/>
	<path fill-rule="evenodd" clip-rule="evenodd" fill="#FEAE05" d="M71.351,38.6c0.763,0,1.523-0.004,2.286,0.003
		c0.238,0.002,0.52,0.017,0.529,0.342c0.01,0.326-0.271,0.359-0.511,0.359c-1.521,0.008-3.046,0.005-4.569-0.002
		c-0.241-0.002-0.528-0.045-0.531-0.353c-0.003-0.38,0.33-0.345,0.583-0.349C69.876,38.592,70.614,38.597,71.351,38.6z"/>
	<path fill-rule="evenodd" clip-rule="evenodd" fill="#FEAE05" d="M77.683,39.308c-0.735,0.001-1.473,0.005-2.209-0.002
		c-0.24-0.004-0.52-0.031-0.518-0.356c0.003-0.324,0.283-0.345,0.522-0.345c1.499-0.005,2.995-0.004,4.494,0.002
		c0.217,0.002,0.459,0.033,0.479,0.315c0.022,0.335-0.244,0.376-0.485,0.38C79.205,39.313,78.444,39.306,77.683,39.308z"/>
	<path fill-rule="evenodd" clip-rule="evenodd" fill="#FEAE05" d="M71.401,39.464c0.76,0,1.521-0.005,2.279,0.004
		c0.203,0.002,0.488-0.035,0.506,0.258c0.017,0.296-0.259,0.307-0.468,0.309c-1.568,0.005-3.136,0.003-4.705-0.002
		c-0.188,0-0.427-0.015-0.434-0.262c-0.01-0.307,0.264-0.297,0.468-0.301C69.832,39.459,70.616,39.466,71.401,39.464z"/>
	<path fill-rule="evenodd" clip-rule="evenodd" fill="#FEAE05" d="M71.072,40.867c-0.689,0-1.377,0.008-2.064-0.003
		c-0.186-0.004-0.418-0.041-0.418-0.29c0.003-0.26,0.241-0.262,0.424-0.264c1.591-0.004,3.18-0.002,4.769,0.005
		c0.19,0.003,0.419,0.038,0.414,0.289c-0.003,0.283-0.242,0.219-0.427,0.217c-0.899,0-1.801,0-2.697,0
		C71.072,40.838,71.072,40.853,71.072,40.867z"/>
	<path fill-rule="evenodd" clip-rule="evenodd" fill="#FEAE05" d="M77.668,40.039c-0.711,0-1.423,0.01-2.134-0.003
		c-0.223-0.004-0.545,0.042-0.536-0.301c0.007-0.28,0.298-0.266,0.501-0.268c1.472-0.006,2.94-0.006,4.411,0
		c0.206,0,0.495-0.013,0.499,0.27c0.007,0.343-0.315,0.293-0.538,0.297C79.138,40.047,78.404,40.039,77.668,40.039z"/>
	<path fill-rule="evenodd" clip-rule="evenodd" fill="#FEAE05" d="M77.668,40.303c0.711,0,1.423-0.01,2.134,0.006
		c0.236,0.006,0.607-0.085,0.605,0.296c-0.001,0.313-0.34,0.273-0.564,0.272c-1.469-0.004-2.936-0.017-4.404-0.033
		c-0.199-0.003-0.502,0.083-0.51-0.224c-0.009-0.327,0.308-0.308,0.536-0.312c0.734-0.009,1.469-0.003,2.203-0.003V40.303z"/>
	<path fill-rule="evenodd" clip-rule="evenodd" fill="#FEAE05" d="M71.399,38.334c-0.782,0-1.563,0.003-2.344-0.004
		c-0.178-0.004-0.444,0.024-0.436-0.234c0.008-0.251,0.272-0.221,0.452-0.221c1.539-0.006,3.077-0.004,4.615,0.001
		c0.183,0,0.451-0.019,0.464,0.218c0.018,0.335-0.297,0.232-0.479,0.236c-0.759,0.015-1.516,0.006-2.272,0.006
		C71.399,38.334,71.399,38.334,71.399,38.334z"/>
	<path fill-rule="evenodd" clip-rule="evenodd" fill="#FEAE05" d="M77.639,38.334c-0.711,0-1.422,0.003-2.134-0.004
		c-0.18-0.002-0.444,0.037-0.467-0.207c-0.024-0.27,0.245-0.245,0.421-0.245c1.493-0.007,2.987-0.007,4.481-0.002
		c0.177,0,0.446-0.022,0.434,0.236c-0.013,0.247-0.278,0.216-0.459,0.218C79.156,38.337,78.398,38.334,77.639,38.334z"/>
	<path fill-rule="evenodd" clip-rule="evenodd" fill="#FEAE05" d="M70.021,41.727c-0.382,0-0.761,0.013-1.139-0.005
		c-0.21-0.01-0.363-0.127-0.344-0.367c0.018-0.201,0.168-0.294,0.344-0.295c0.808-0.014,1.612-0.015,2.42-0.008
		c0.173,0.002,0.335,0.076,0.343,0.288c0.009,0.23-0.139,0.366-0.344,0.378c-0.426,0.021-0.854,0.006-1.28,0.006
		C70.021,41.725,70.021,41.725,70.021,41.727z"/>
	<path fill-rule="evenodd" clip-rule="evenodd" fill="#FEAE05" d="M76.458,41.043c0.332,0,0.665-0.011,0.996,0.003
		c0.225,0.01,0.44,0.079,0.429,0.363c-0.01,0.242-0.203,0.317-0.398,0.321c-0.712,0.012-1.424,0.012-2.136,0
		c-0.2-0.004-0.39-0.085-0.395-0.327c-0.006-0.283,0.211-0.348,0.436-0.357C75.745,41.032,76.102,41.043,76.458,41.043z"/>
	<path fill-rule="evenodd" clip-rule="evenodd" fill="#FEAE05" d="M62.421,51.279c-0.975,0-1.949-0.012-2.924,0.007
		c-0.591,0.01-0.887-0.15-0.87-0.635c0.023-0.755,0.01-1.509,0.007-2.262c-0.002-0.43,0.255-0.647,0.821-0.647
		c2.021,0.002,4.042,0.002,6.062,0c0.473,0,0.697,0.175,0.695,0.539c-0.005,0.811-0.01,1.618,0.002,2.427
		c0.006,0.434-0.273,0.58-0.797,0.574C64.419,51.271,63.42,51.279,62.421,51.279z"/>
	<path fill-rule="evenodd" clip-rule="evenodd" fill="#FEAE05" d="M62.422,58.37c-0.997,0-1.994-0.013-2.99,0.006
		c-0.567,0.01-0.82-0.223-0.813-0.803c0.022-2.348-0.24-2.054,1.96-2.069c1.588-0.009,3.18,0.016,4.769-0.007
		c0.631-0.009,0.898,0.218,0.887,0.874c-0.035,2.247,0.23,1.984-1.963,1.999C63.655,58.374,63.039,58.372,62.422,58.37z"/>
	<path fill-rule="evenodd" clip-rule="evenodd" fill="#FEAE05" d="M62.47,52.057c1.021,0,2.043,0.01,3.065-0.003
		c0.474-0.006,0.71,0.179,0.692,0.673c-0.015,0.45-0.02,0.901,0.004,1.354c0.026,0.566-0.253,0.743-0.783,0.739
		c-2.019-0.015-4.039-0.015-6.059,0c-0.541,0.004-0.779-0.195-0.771-0.753c0.031-2.36-0.257-1.975,1.925-2.01
		c0.642-0.011,1.283-0.002,1.926-0.002V52.057z"/>
	<path fill-rule="evenodd" clip-rule="evenodd" fill="#FEAE05" d="M62.397,47.095c-0.997,0-1.994-0.015-2.989,0.008
		c-0.702,0.015-0.811-0.382-0.805-0.962c0.004-0.625,0.266-0.962,0.896-0.899c1.984,0.201,3.972-0.089,5.955,0.092
		c0.462,0.043,0.851,0.054,0.816,0.691c-0.031,0.57,0.027,1.111-0.814,1.079C64.438,47.066,63.416,47.095,62.397,47.095z"/>
</g>
</svg>
